<?xml version="1.0" encoding="UTF-8" standalone="no"?>
<svg
   xmlns:dc="http://purl.org/dc/elements/1.1/"
   xmlns:cc="http://creativecommons.org/ns#"
   xmlns:rdf="http://www.w3.org/1999/02/22-rdf-syntax-ns#"
   xmlns:svg="http://www.w3.org/2000/svg"
   xmlns="http://www.w3.org/2000/svg"
   xmlns:sodipodi="http://sodipodi.sourceforge.net/DTD/sodipodi-0.dtd"
   xmlns:inkscape="http://www.inkscape.org/namespaces/inkscape"
   width="59"
   height="24"
   viewBox="0 0 59 24"
   id="svg2"
   version="1.1"
   inkscape:version="0.91 r13725"
   sodipodi:docname="ic_google_pay_grayscale.svg">
  <metadata
     id="metadata12">
    <rdf:RDF>
      <cc:Work
         rdf:about="">
        <dc:format>image/svg+xml</dc:format>
        <dc:type
           rdf:resource="http://purl.org/dc/dcmitype/StillImage" />
      </cc:Work>
    </rdf:RDF>
  </metadata>
  <defs
     id="defs10" />
  <sodipodi:namedview
     pagecolor="#ffffff"
     bordercolor="#666666"
     borderopacity="1"
     objecttolerance="10"
     gridtolerance="10"
     guidetolerance="10"
     inkscape:pageopacity="0"
     inkscape:pageshadow="2"
     inkscape:window-width="745"
     inkscape:window-height="480"
     id="namedview8"
     showgrid="false"
     inkscape:zoom="4.220339"
     inkscape:cx="29.5"
     inkscape:cy="12"
     inkscape:window-x="355"
     inkscape:window-y="164"
     inkscape:window-maximized="0"
     inkscape:current-layer="svg2" />
  <g
     fill="#5F6368"
     fill-rule="nonzero"
     id="g4"
     style="fill:#ffffff">
    <path
       d="M27.746 11.737v6.96h-2.167V1.509h5.746a5.142 5.142 0 0 1 3.72 1.488A4.826 4.826 0 0 1 36.6 6.624a4.804 4.804 0 0 1-1.554 3.648c-1.004.976-2.245 1.464-3.72 1.463h-3.58v.002zm0-8.112v6h3.633a2.836 2.836 0 0 0 2.143-.889c.557-.552.87-1.31.87-2.1 0-.792-.313-1.55-.87-2.1a2.8 2.8 0 0 0-2.143-.913h-3.633v.002zM41.591 6.553c1.602 0 2.866.436 3.792 1.308.927.872 1.39 2.068 1.389 3.588v7.248H44.7v-1.632h-.094c-.898 1.344-2.09 2.016-3.58 2.016-1.27 0-2.334-.384-3.19-1.152a3.708 3.708 0 0 1-1.284-2.88c0-1.217.452-2.185 1.354-2.904.902-.718 2.107-1.078 3.614-1.08 1.286 0 2.346.24 3.178.72v-.505a2.534 2.534 0 0 0-.894-1.954 3.035 3.035 0 0 0-2.091-.805c-1.21 0-2.168.52-2.873 1.56l-1.908-1.224c1.05-1.536 2.603-2.304 4.66-2.304zm-2.802 8.544c-.003.57.264 1.106.718 1.44a2.61 2.61 0 0 0 1.683.576 3.421 3.421 0 0 0 2.437-1.032c.718-.688 1.077-1.496 1.077-2.423-.676-.549-1.618-.823-2.826-.823-.88 0-1.614.216-2.201.649-.594.439-.888.972-.888 1.613zM58.667 6.937L51.433 23.88h-2.236l2.684-5.929-4.757-11.015h2.355l3.438 8.448h.047l3.344-8.448zM1.032 5.578C2.677 2.242 6.026.138 9.688.138a9.212 9.212 0 0 1 6.482 2.57l-2.765 2.819a5.206 5.206 0 0 0-3.717-1.481c-2.527 0-4.672 1.736-5.439 4.076a6.024 6.024 0 0 0 0 3.78c.767 2.339 2.912 4.075 5.44 4.075 1.308 0 2.428-.343 3.297-.943v-.002a4.577 4.577 0 0 0 1.935-3H9.688V8.229h9.136c.112.663.168 1.334.167 2.007 0 3.005-1.053 5.546-2.882 7.265h-.002l.002.001c-1.605 1.509-3.806 2.384-6.42 2.384-3.663 0-7.012-2.105-8.657-5.44a10.044 10.044 0 0 1 0-8.868z"
       id="path6"
       style="fill:#ffffff" />
  </g>
</svg>
