<?xml version="1.0" encoding="UTF-8" standalone="no"?>
<svg
   xmlns:dc="http://purl.org/dc/elements/1.1/"
   xmlns:cc="http://creativecommons.org/ns#"
   xmlns:rdf="http://www.w3.org/1999/02/22-rdf-syntax-ns#"
   xmlns:svg="http://www.w3.org/2000/svg"
   xmlns="http://www.w3.org/2000/svg"
   xmlns:sodipodi="http://sodipodi.sourceforge.net/DTD/sodipodi-0.dtd"
   xmlns:inkscape="http://www.inkscape.org/namespaces/inkscape"
   width="24"
   height="24"
   viewBox="0 0 24 24"
   id="svg3640"
   version="1.1"
   inkscape:version="0.91 r13725"
   sodipodi:docname="ic_play_apps_24dp.svg">
  <metadata
     id="metadata3652">
    <rdf:RDF>
      <cc:Work
         rdf:about="">
        <dc:format>image/svg+xml</dc:format>
        <dc:type
           rdf:resource="http://purl.org/dc/dcmitype/StillImage" />
        <dc:title></dc:title>
      </cc:Work>
    </rdf:RDF>
  </metadata>
  <defs
     id="defs3650" />
  <sodipodi:namedview
     pagecolor="#ffffff"
     bordercolor="#666666"
     borderopacity="1"
     objecttolerance="10"
     gridtolerance="10"
     guidetolerance="10"
     inkscape:pageopacity="0"
     inkscape:pageshadow="2"
     inkscape:window-width="1920"
     inkscape:window-height="1026"
     id="namedview3648"
     showgrid="false"
     inkscape:zoom="34.916667"
     inkscape:cx="12"
     inkscape:cy="12"
     inkscape:window-x="0"
     inkscape:window-y="0"
     inkscape:window-maximized="1"
     inkscape:current-layer="svg3640" />
  <style
     type="text/css"
     id="style3642">.st0{opacity:0;}</style>
  <path
     class="st0"
     d="M0 0h24v24h-24z"
     id="path3644" />
  <path
     d="M5 21h14c1.1 0 2-.9 2-2v-14c0-1.1-.9-2-2-2h-14c-1.1 0-2 .9-2 2v14c0 1.1.9 2 2 2zm10-14h2v2h-2v-2zm0 4h2v2h-2v-2zm0 4h2v2h-2v-2zm-4-8h2v2h-2v-2zm0 4h2v2h-2v-2zm0 4h2v2h-2v-2zm-4-8h2v2h-2v-2zm0 4h2v2h-2v-2zm0 4h2v2h-2v-2z"
     id="path3646"
     style="fill:#ffffff" />
</svg>
