<?xml version="1.0" encoding="UTF-8" standalone="no"?>
<svg
   xmlns:dc="http://purl.org/dc/elements/1.1/"
   xmlns:cc="http://creativecommons.org/ns#"
   xmlns:rdf="http://www.w3.org/1999/02/22-rdf-syntax-ns#"
   xmlns:svg="http://www.w3.org/2000/svg"
   xmlns="http://www.w3.org/2000/svg"
   xmlns:sodipodi="http://sodipodi.sourceforge.net/DTD/sodipodi-0.dtd"
   xmlns:inkscape="http://www.inkscape.org/namespaces/inkscape"
   width="24"
   height="24"
   viewBox="0 0 24 24"
   version="1.1"
   id="svg6"
   sodipodi:docname="ic_ticket_24dp.svg"
   inkscape:version="0.92.3 (2405546, 2018-03-11)">
  <metadata
     id="metadata12">
    <rdf:RDF>
      <cc:Work
         rdf:about="">
        <dc:format>image/svg+xml</dc:format>
        <dc:type
           rdf:resource="http://purl.org/dc/dcmitype/StillImage" />
      </cc:Work>
    </rdf:RDF>
  </metadata>
  <defs
     id="defs10" />
  <sodipodi:namedview
     pagecolor="#ffffff"
     bordercolor="#666666"
     borderopacity="1"
     objecttolerance="10"
     gridtolerance="10"
     guidetolerance="10"
     inkscape:pageopacity="0"
     inkscape:pageshadow="2"
     inkscape:window-width="640"
     inkscape:window-height="480"
     id="namedview8"
     showgrid="false"
     inkscape:zoom="9.8333333"
     inkscape:cx="12"
     inkscape:cy="12"
     inkscape:window-x="0"
     inkscape:window-y="0"
     inkscape:window-maximized="0"
     inkscape:current-layer="svg6" />
  <path
     fill="none"
     d="M0 0h24v24H0z"
     id="path2" />
  <path
     d="M16 22h-1.5c-.55 0-1-.45-1-1v-.5c0-.83-.67-1.5-1.5-1.5s-1.5.67-1.5 1.5v.5c0 .55-.45 1-1 1H8c-1.65 0-3-1.35-3-3V5c0-1.65 1.35-3 3-3h1.5c.55 0 1 .45 1 1v.5c0 .83.67 1.5 1.5 1.5s1.5-.67 1.5-1.5V3c0-.55.45-1 1-1H16c1.65 0 3 1.35 3 3v14c0 1.65-1.35 3-3 3zm-.54-2H16c.55 0 1-.45 1-1V5c0-.55-.45-1-1-1h-.54c-.24 1.69-1.7 3-3.46 3S8.78 5.69 8.54 4H8c-.55 0-1 .45-1 1v14c0 .55.45 1 1 1h.54c.24-1.69 1.71-3 3.46-3 1.76 0 3.22 1.31 3.46 3z"
     id="path4"
     style="fill:#ffffff" />
</svg>
