<?xml version="1.0" encoding="UTF-8" standalone="no"?>
<svg
   xmlns:dc="http://purl.org/dc/elements/1.1/"
   xmlns:cc="http://creativecommons.org/ns#"
   xmlns:rdf="http://www.w3.org/1999/02/22-rdf-syntax-ns#"
   xmlns:svg="http://www.w3.org/2000/svg"
   xmlns="http://www.w3.org/2000/svg"
   xmlns:sodipodi="http://sodipodi.sourceforge.net/DTD/sodipodi-0.dtd"
   xmlns:inkscape="http://www.inkscape.org/namespaces/inkscape"
   id="Layer_1"
   viewBox="0 0 24 24"
   version="1.1"
   inkscape:version="0.91 r13725"
   sodipodi:docname="ic_parental_controls_24dp.svg">
  <metadata
     id="metadata3560">
    <rdf:RDF>
      <cc:Work
         rdf:about="">
        <dc:format>image/svg+xml</dc:format>
        <dc:type
           rdf:resource="http://purl.org/dc/dcmitype/StillImage" />
        <dc:title></dc:title>
      </cc:Work>
    </rdf:RDF>
  </metadata>
  <defs
     id="defs3558" />
  <sodipodi:namedview
     pagecolor="#ffffff"
     bordercolor="#666666"
     borderopacity="1"
     objecttolerance="10"
     gridtolerance="10"
     guidetolerance="10"
     inkscape:pageopacity="0"
     inkscape:pageshadow="2"
     inkscape:window-width="1920"
     inkscape:window-height="1026"
     id="namedview3556"
     showgrid="false"
     inkscape:zoom="34.916667"
     inkscape:cx="12"
     inkscape:cy="12"
     inkscape:window-x="0"
     inkscape:window-y="0"
     inkscape:window-maximized="1"
     inkscape:current-layer="Layer_1" />
  <style
     id="style3552">.st0{fill-rule:evenodd;clip-rule:evenodd;fill:#010101;}</style>
  <path
     class="st0"
     d="M5 18H0v-2c0-2 4-3 6-3 .21 0 .44.01.68.03-1.01.7-1.68 1.68-1.68 2.95V18zm.5-7C6.89 11 8 9.88 8 8.5S6.89 6 5.5 6C4.12 6 3 7.12 3 8.5S4.12 11 5.5 11zM20 11.4c-.79 0-1.44-.63-1.44-1.4 0-.77.65-1.4 1.44-1.4.79 0 1.44.63 1.44 1.4 0 .77-.65 1.4-1.44 1.4zm3.06-1.01c.02-.13.03-.26.03-.39s-.01-.26-.03-.39l.87-.66c.08-.06.1-.17.05-.26l-.82-1.38c-.05-.09-.16-.12-.25-.09l-1.02.4c-.21-.16-.44-.29-.69-.39l-.16-1.06c-.03-.1-.11-.17-.22-.17h-1.64c-.1 0-.19.07-.2.17l-.16 1.06c-.25.1-.48.24-.69.39l-1.02-.4c-.09-.04-.2 0-.25.09l-.82 1.38c-.05.09-.03.2.05.26l.87.66c-.02.13-.03.26-.03.39s.01.26.03.39l-.87.66c-.08.06-.1.17-.05.26l.82 1.38c.05.09.16.12.25.09l1.02-.4c.21.16.44.29.69.39l.16 1.06c.01.1.1.17.2.17h1.64c.1 0 .19-.07.2-.17l.16-1.06c.25-.1.48-.24.69-.39l1.02.4c.09.04.2 0 .25-.09l.82-1.38c.05-.09.03-.2-.05-.26l-.85-.66zM7.1 16.2V18h8.8v-1.8c0-1.46-2.94-2.2-4.4-2.2s-4.4.74-4.4 2.2zM11.5 11.51c1.11 0 2-.9 2-2s-.89-2-2-2-2 .9-2 2 .9 2 2 2z"
     id="path3554"
     style="fill:#ffffff" />
</svg>
