<svg width="106" height="14" viewBox="0 0 106 14" xmlns="http://www.w3.org/2000/svg"><g fill="none" fill-rule="evenodd"><path d="M0 5.872C0 3.15 2.318.933 5.075.933c1.525 0 2.61.59 3.428 1.361l-.964.952a3.507 3.507 0 0 0-2.464-.964 3.564 3.564 0 0 0-3.587 3.59 3.564 3.564 0 0 0 3.587 3.59c1.305 0 2.049-.519 2.525-.988.39-.386.646-.94.744-1.699h-3.27V5.426h4.6c.048.241.073.53.073.843 0 1.012-.28 2.265-1.184 3.156-.878.904-2 1.385-3.488 1.385C2.318 10.81 0 8.594 0 5.872zm13.463 3.686c-.976 0-1.817-.795-1.817-1.928 0-1.144.841-1.927 1.817-1.927s1.818.783 1.818 1.927c0 1.133-.842 1.928-1.818 1.928zm0-5.107c1.781 0 3.233 1.337 3.233 3.18 0 1.83-1.452 3.18-3.233 3.18-1.78 0-3.232-1.35-3.232-3.18 0-1.843 1.451-3.18 3.232-3.18zm7.052 5.107c-.976 0-1.817-.795-1.817-1.928 0-1.144.841-1.927 1.817-1.927s1.818.783 1.818 1.927c0 1.133-.842 1.928-1.818 1.928zm0-5.107c1.781 0 3.233 1.337 3.233 3.18 0 1.83-1.452 3.18-3.233 3.18-1.78 0-3.232-1.35-3.232-3.18 0-1.843 1.451-3.18 3.232-3.18zm7.034 5.107c-.976 0-1.793-.807-1.793-1.915 0-1.12.817-1.94 1.793-1.94.963 0 1.72.82 1.72 1.94 0 1.108-.757 1.915-1.72 1.915zm1.622-4.915h1.342v5.71c0 2.349-1.403 3.312-3.062 3.312-1.561 0-2.5-1.036-2.854-1.879l1.232-.506c.22.518.756 1.132 1.622 1.132 1.061 0 1.72-.65 1.72-1.867v-.457h-.049c-.317.385-.927.722-1.695.722-1.61 0-3.086-1.385-3.086-3.167 0-1.795 1.476-3.192 3.086-3.192.768 0 1.378.337 1.695.71h.05v-.518zm3.733 5.975h-1.415V1.27h1.415v9.347zm3.77-4.939c.56 0 1.036.277 1.195.675l-2.879 1.18a1.754 1.754 0 0 1 1.683-1.855zm.11 3.879c.719 0 1.219-.35 1.585-.88l1.098.723a3.212 3.212 0 0 1-2.684 1.41c-1.83 0-3.196-1.398-3.196-3.18 0-1.892 1.379-3.18 3.038-3.18 1.67 0 2.488 1.312 2.757 2.023l.146.362-4.306 1.758c.33.639.841.964 1.561.964zm9.33-3.783h-2.01V2.571h2.01a1.63 1.63 0 0 1 1.656 1.602c0 .725-.6 1.602-1.656 1.602zm-.037-4.504c1.566 0 3.105 1.12 3.105 2.902 0 1.784-1.539 2.903-3.105 2.903h-1.973v3.541h-1.412V1.271h3.385zm5.198 0v9.346h-1.413V1.271h1.413zm3.41 8.285c-.462 0-1.108-.229-1.108-.794 0-.721.804-.998 1.498-.998.622 0 .914.132 1.291.313a1.705 1.705 0 0 1-1.68 1.479zm3.045 1.046h-1.364V9.88h-.048c-.33.493-.853.914-1.803.914-1.242 0-2.35-.805-2.35-2.056 0-1.37 1.376-2.104 2.728-2.104.67 0 1.217.216 1.473.36v-.096c-.012-.77-.755-1.202-1.485-1.202-.524 0-1.023.168-1.291.685l-1.255-.517c.439-.986 1.498-1.43 2.521-1.43 1.62 0 2.874.925 2.874 2.584v3.584zm4.964-5.964h1.57l-3.884 8.814h-1.474l1.437-3.15-2.52-5.664h1.522l1.68 4.052h.05l1.619-4.052z" fill="#fff"/><g fill-rule="nonzero"><path d="M88.018 6.879v3.802h-1.211v-9.39h3.213a2.913 2.913 0 0 1 2.081.813c.564.504.88 1.227.87 1.981a2.596 2.596 0 0 1-.87 1.993c-.562.534-1.256.8-2.08.8h-2.003zm0-4.432v3.278h2.032c.45.013.886-.163 1.199-.486a1.597 1.597 0 0 0 0-2.295c-.31-.33-.746-.51-1.199-.498h-2.032zM95.762 4.047c.896 0 1.603.238 2.121.714.518.477.777 1.13.777 1.96v3.96H97.5v-.892h-.052c-.502.735-1.169 1.102-2.002 1.102-.71 0-1.306-.21-1.784-.63a2.006 2.006 0 0 1-.718-1.573c0-.665.252-1.194.757-1.586.505-.393 1.178-.59 2.021-.59.72 0 1.312.13 1.778.393v-.276a1.37 1.37 0 0 0-.5-1.068 1.72 1.72 0 0 0-1.17-.44c-.677 0-1.212.285-1.607.853l-1.067-.669c.587-.839 1.456-1.258 2.606-1.258zm-1.567 4.667a.962.962 0 0 0 .402.787c.267.21.6.321.941.315.511-.001 1.001-.204 1.363-.564.401-.376.602-.817.602-1.324-.378-.3-.905-.45-1.58-.45-.493 0-.903.119-1.232.355-.332.24-.496.531-.496.881zM105.313 4.256l-4.046 9.257h-1.251l1.501-3.239-2.66-6.018h1.317l1.923 4.616h.026l1.87-4.616z" fill="#fff"/><path d="M83.122 6.059a6.4 6.4 0 0 0-.093-1.097h-5.11V7.04h2.926a2.497 2.497 0 0 1-1.082 1.639v1.349h1.747c1.023-.94 1.612-2.327 1.612-3.969z" fill="#4285F4"/><path d="M77.919 11.33c1.462 0 2.693-.477 3.59-1.302L79.764 8.68c-.486.328-1.112.515-1.844.515-1.414 0-2.613-.948-3.042-2.226h-1.8v1.39a5.421 5.421 0 0 0 4.842 2.972z" fill="#34A853"/><path d="M74.877 6.969a3.219 3.219 0 0 1 0-2.065v-1.39h-1.8a5.373 5.373 0 0 0 0 4.844l1.8-1.39z" fill="#FABB05"/><path d="M77.919 2.677a2.949 2.949 0 0 1 2.078.81l1.547-1.54A5.22 5.22 0 0 0 77.919.541a5.421 5.421 0 0 0-4.842 2.972l1.8 1.39c.429-1.279 1.628-2.227 3.042-2.227z" fill="#E94235"/></g><path d="M68.438 1.4v11.667" stroke-opacity=".12" stroke="#fff" stroke-width=".933" stroke-linecap="square"/></g></svg>