<?xml version="1.0" encoding="UTF-8" standalone="no"?>
<!-- Generator: Adobe Illustrator 22.1.0, SVG Export Plug-In . SVG Version: 6.00 Build 0)  -->

<svg
   xmlns:dc="http://purl.org/dc/elements/1.1/"
   xmlns:cc="http://creativecommons.org/ns#"
   xmlns:rdf="http://www.w3.org/1999/02/22-rdf-syntax-ns#"
   xmlns:svg="http://www.w3.org/2000/svg"
   xmlns="http://www.w3.org/2000/svg"
   xmlns:sodipodi="http://sodipodi.sourceforge.net/DTD/sodipodi-0.dtd"
   xmlns:inkscape="http://www.inkscape.org/namespaces/inkscape"
   version="1.1"
   id="Layer_1"
   x="0px"
   y="0px"
   width="24px"
   height="24px"
   viewBox="0 0 24 24"
   style="enable-background:new 0 0 24 24;"
   xml:space="preserve"
   inkscape:version="0.91 r13725"
   sodipodi:docname="ic_autorenew_black_24dp.svg"><metadata
     id="metadata13"><rdf:RDF><cc:Work
         rdf:about=""><dc:format>image/svg+xml</dc:format><dc:type
           rdf:resource="http://purl.org/dc/dcmitype/StillImage" /></cc:Work></rdf:RDF></metadata><defs
     id="defs11" /><sodipodi:namedview
     pagecolor="#ffffff"
     bordercolor="#666666"
     borderopacity="1"
     objecttolerance="10"
     gridtolerance="10"
     guidetolerance="10"
     inkscape:pageopacity="0"
     inkscape:pageshadow="2"
     inkscape:window-width="640"
     inkscape:window-height="480"
     id="namedview9"
     showgrid="false"
     inkscape:zoom="9.8333333"
     inkscape:cx="12"
     inkscape:cy="12"
     inkscape:window-x="0"
     inkscape:window-y="0"
     inkscape:window-maximized="0"
     inkscape:current-layer="Layer_1" /><style
     type="text/css"
     id="style3">
	.st0{fill:none;}
</style><path
     class="st0"
     d="M0,0h24v24H0V0z"
     id="path5" /><path
     d="M12,6h0.17l-1.09,1.09L12.5,8.5L16,5l-3.5-3.5l-1.41,1.41L12.17,4H12C9.95,4,7.91,4.78,6.34,6.34   c-3.12,3.12-3.12,8.19,0,11.31l1.41-1.41c-2.34-2.34-2.34-6.15,0-8.49C8.89,6.62,10.4,6,12,6z M17.66,17.66   c3.12-3.12,3.12-8.19,0-11.31l-1.41,1.41c2.34,2.34,2.34,6.15,0,8.49C15.11,17.38,13.6,18,12,18h-0.17l1.09-1.09L11.5,15.5L8,19  l3.5,3.5l1.41-1.41L11.83,20H12C14.05,20,16.09,19.22,17.66,17.66z"
     id="path7"
     style="fill:#ffffff" /></svg>