<?xml version="1.0" encoding="UTF-8" standalone="no"?>
<svg
   xmlns:dc="http://purl.org/dc/elements/1.1/"
   xmlns:cc="http://creativecommons.org/ns#"
   xmlns:rdf="http://www.w3.org/1999/02/22-rdf-syntax-ns#"
   xmlns:svg="http://www.w3.org/2000/svg"
   xmlns="http://www.w3.org/2000/svg"
   xmlns:sodipodi="http://sodipodi.sourceforge.net/DTD/sodipodi-0.dtd"
   xmlns:inkscape="http://www.inkscape.org/namespaces/inkscape"
   width="48"
   height="48"
   viewBox="0 0 48 48"
   id="svg2"
   version="1.1"
   inkscape:version="0.91 r13725"
   sodipodi:docname="ic_check_circle_large.svg">
  <metadata
     id="metadata10">
    <rdf:RDF>
      <cc:Work
         rdf:about="">
        <dc:format>image/svg+xml</dc:format>
        <dc:type
           rdf:resource="http://purl.org/dc/dcmitype/StillImage" />
      </cc:Work>
    </rdf:RDF>
  </metadata>
  <defs
     id="defs8" />
  <sodipodi:namedview
     pagecolor="#ffffff"
     bordercolor="#666666"
     borderopacity="1"
     objecttolerance="10"
     gridtolerance="10"
     guidetolerance="10"
     inkscape:pageopacity="0"
     inkscape:pageshadow="2"
     inkscape:window-width="792"
     inkscape:window-height="480"
     id="namedview6"
     showgrid="false"
     inkscape:zoom="4.9166667"
     inkscape:cx="24"
     inkscape:cy="24"
     inkscape:window-x="0"
     inkscape:window-y="0"
     inkscape:window-maximized="0"
     inkscape:current-layer="svg2" />
  <path
     d="M27.13 0.2L28.64 0.46L30.13 0.79L31.58 1.22L32.99 1.74L34.36 2.35L35.68 3.04L36.95 3.79L38.17 4.63L39.34 5.54L40.44 6.52L41.48 7.56L42.46 8.66L43.37 9.83L44.21 11.05L44.96 12.32L45.65 13.64L46.26 15.01L46.78 16.42L47.21 17.87L47.54 19.36L47.8 20.87L47.95 22.43L48 24L47.95 25.57L47.8 27.13L47.54 28.64L47.21 30.13L46.78 31.58L46.26 32.99L45.65 34.36L44.96 35.68L44.21 36.95L43.37 38.17L42.46 39.34L41.48 40.44L40.44 41.48L39.34 42.46L38.17 43.37L36.95 44.21L35.68 44.96L34.36 45.65L32.99 46.26L31.58 46.78L30.13 47.21L28.64 47.54L27.13 47.8L25.57 47.95L24 48L22.43 47.95L20.87 47.8L19.36 47.54L17.87 47.21L16.42 46.78L15.01 46.26L13.64 45.65L12.32 44.96L11.05 44.21L9.83 43.37L8.66 42.46L7.56 41.48L6.52 40.44L5.54 39.34L4.63 38.17L3.79 36.95L3.04 35.68L2.35 34.36L1.74 32.99L1.22 31.58L0.79 30.13L0.46 28.64L0.2 27.13L0.05 25.57L0 24L0.05 22.43L0.2 20.87L0.46 19.36L0.79 17.87L1.22 16.42L1.74 15.01L2.35 13.64L3.04 12.32L3.79 11.05L4.63 9.83L5.54 8.66L6.52 7.56L7.56 6.52L8.66 5.54L9.83 4.63L11.05 3.79L12.32 3.04L13.64 2.35L15.01 1.74L16.42 1.22L17.87 0.79L19.36 0.46L20.87 0.2L22.43 0.05L24 0L25.57 0.05L27.13 0.2ZM15.82 24.6L13.99 26.28L20.9 33.17L25.8 28.27L35.78 18.3L34.04 16.58L20.99 29.81L15.82 24.6Z"
     id="path4"
     style="fill:#ffffff" />
</svg>
