<?xml version="1.0" encoding="UTF-8" standalone="no"?>
<!-- Generator: Adobe Illustrator 22.1.0, SVG Export Plug-In . SVG Version: 6.00 Build 0)  -->

<svg
   xmlns:dc="http://purl.org/dc/elements/1.1/"
   xmlns:cc="http://creativecommons.org/ns#"
   xmlns:rdf="http://www.w3.org/1999/02/22-rdf-syntax-ns#"
   xmlns:svg="http://www.w3.org/2000/svg"
   xmlns="http://www.w3.org/2000/svg"
   xmlns:sodipodi="http://sodipodi.sourceforge.net/DTD/sodipodi-0.dtd"
   xmlns:inkscape="http://www.inkscape.org/namespaces/inkscape"
   version="1.1"
   id="Layer_1"
   x="0px"
   y="0px"
   width="24px"
   height="24px"
   viewBox="0 0 24 24"
   enable-background="new 0 0 24 24"
   xml:space="preserve"
   sodipodi:docname="ic_editors_choice.svg"
   inkscape:version="0.92.3 (2405546, 2018-03-11)"><metadata
   id="metadata11"><rdf:RDF><cc:Work
       rdf:about=""><dc:format>image/svg+xml</dc:format><dc:type
         rdf:resource="http://purl.org/dc/dcmitype/StillImage" /></cc:Work></rdf:RDF></metadata><defs
   id="defs9" /><sodipodi:namedview
   pagecolor="#ffffff"
   bordercolor="#666666"
   borderopacity="1"
   objecttolerance="10"
   gridtolerance="10"
   guidetolerance="10"
   inkscape:pageopacity="0"
   inkscape:pageshadow="2"
   inkscape:window-width="640"
   inkscape:window-height="480"
   id="namedview7"
   showgrid="false"
   inkscape:zoom="9.8333333"
   inkscape:cx="7.5254237"
   inkscape:cy="12"
   inkscape:window-x="0"
   inkscape:window-y="0"
   inkscape:window-maximized="0"
   inkscape:current-layer="Layer_1" />
<rect
   fill="none"
   width="24"
   height="24"
   id="rect2" />
  <path
   d="M17.25,2.5H6.75C5.23,2.5,4,3.68,4,5.13v11.55c0,1.04,0.64,1.99,1.64,2.41l5.25,2.2c0.35,0.15,0.72,0.22,1.11,0.22  s0.76-0.07,1.11-0.22l5.25-2.2c1-0.42,1.64-1.36,1.64-2.41V5.13C20,3.68,18.77,2.5,17.25,2.5z M18,16.67c0,0.24-0.16,0.46-0.41,0.56  l-5.25,2.2c-0.11,0.04-0.22,0.07-0.34,0.07s-0.23-0.02-0.34-0.07l-5.25-2.2C6.16,17.13,6,16.91,6,16.67V5.13  C6,4.78,6.34,4.5,6.75,4.5h10.5C17.66,4.5,18,4.78,18,5.13V16.67z M13.33,9.64L12,6.5l-1.33,3.14l-3.4,0.29l2.58,2.24L9.08,15.5  L12,13.73l2.92,1.76l-0.77-3.33l2.58-2.24L13.33,9.64z"
   id="path4"
   style="fill:#ffffff" />
</svg>