<?xml version="1.0" encoding="UTF-8" standalone="no"?>
<svg
   xmlns:sketch="http://www.bohemiancoding.com/sketch/ns"
   xmlns:dc="http://purl.org/dc/elements/1.1/"
   xmlns:cc="http://creativecommons.org/ns#"
   xmlns:rdf="http://www.w3.org/1999/02/22-rdf-syntax-ns#"
   xmlns:svg="http://www.w3.org/2000/svg"
   xmlns="http://www.w3.org/2000/svg"
   xmlns:sodipodi="http://sodipodi.sourceforge.net/DTD/sodipodi-0.dtd"
   xmlns:inkscape="http://www.inkscape.org/namespaces/inkscape"
   width="24px"
   height="24px"
   viewBox="0 0 24 24"
   version="1.1"
   id="svg2"
   inkscape:version="0.91 r13725"
   sodipodi:docname="ic_family_settings_24px.svg">
  <metadata
     id="metadata19">
    <rdf:RDF>
      <cc:Work
         rdf:about="">
        <dc:format>image/svg+xml</dc:format>
        <dc:type
           rdf:resource="http://purl.org/dc/dcmitype/StillImage" />
      </cc:Work>
    </rdf:RDF>
  </metadata>
  <sodipodi:namedview
     pagecolor="#ffffff"
     bordercolor="#666666"
     borderopacity="1"
     objecttolerance="10"
     gridtolerance="10"
     guidetolerance="10"
     inkscape:pageopacity="0"
     inkscape:pageshadow="2"
     inkscape:window-width="1920"
     inkscape:window-height="1026"
     id="namedview17"
     showgrid="false"
     inkscape:zoom="9.8333333"
     inkscape:cx="12.20339"
     inkscape:cy="12"
     inkscape:window-x="0"
     inkscape:window-y="0"
     inkscape:window-maximized="1"
     inkscape:current-layer="svg2" />
  <!-- Generator: Sketch 3.5.1 (25234) - http://www.bohemiancoding.com/sketch -->
  <title
     id="title4">ic_family_settings_24px</title>
  <desc
     id="desc6">Created with Sketch.</desc>
  <defs
     id="defs8" />
  <g
     id="Page-1"
     sketch:type="MSPage"
     stroke-width="1"
     stroke="none"
     fill-rule="evenodd"
     fill="none">
    <g
       id="Artboard-17"
       sketch:type="MSArtboardGroup"
       transform="translate(-430.000000, -203.000000)" />
    <g
       id="ic_family_settings_24px"
       sketch:type="MSArtboardGroup">
      <g
         id="ic_change_family_method-copy"
         sketch:type="MSLayerGroup">
        <path
           d="M0,0 L24,0 L24,24 L0,24 L0,0 Z"
           id="Shape"
           sketch:type="MSShapeGroup" />
      </g>
      <path
         d="M19.6407061,12.98 C19.6818283,12.66 19.7126699,12.34 19.7126699,12 C19.7126699,11.66 19.6818283,11.34 19.6407061,11.02 L21.8098984,9.37 C22.0052286,9.22 22.0566312,8.95 21.9332648,8.73 L19.8771584,5.27 C19.753792,5.05 19.4762176,4.97 19.2500459,5.05 L16.6901934,6.05 C16.1556057,5.65 15.5798959,5.32 14.9527835,5.07 L14.5621232,2.42 C14.5312816,2.18 14.3153905,2 14.0583772,2 L9.94616426,2 C9.68915096,2 9.47325978,2.18 9.44241818,2.42 L9.05175796,5.07 C8.42464549,5.32 7.84893569,5.66 7.31434801,6.05 L4.75449549,5.05 C4.51804325,4.96 4.25074941,5.05 4.12738302,5.27 L2.07127658,8.73 C1.93762966,8.95 1.99931285,9.22 2.19464297,9.37 L4.36383526,11.02 C4.32271314,11.34 4.29187154,11.67 4.29187154,12 C4.29187154,12.33 4.32271314,12.66 4.36383526,12.98 L2.19464297,14.63 C1.99931285,14.78 1.94791019,15.05 2.07127658,15.27 L4.12738302,18.73 C4.25074941,18.95 4.52832378,19.03 4.75449549,18.95 L7.31434801,17.95 C7.84893569,18.35 8.42464549,18.68 9.05175796,18.93 L9.44241818,21.58 C9.47325978,21.82 9.68915096,22 9.94616426,22 L14.0583772,22 C14.3153905,22 14.5312816,21.82 14.5621232,21.58 L14.9527835,18.93 C15.5798959,18.68 16.1556057,18.34 16.6901934,17.95 L19.2500459,18.95 C19.4864982,19.04 19.753792,18.95 19.8771584,18.73 L21.9332648,15.27 C22.0566312,15.05 22.0052286,14.78 21.8098984,14.63 L19.6407061,12.98 L19.6407061,12.98 Z M16.1720998,12.9923529 L12.0022707,17.1139305 L7.8324416,12.9923529 C7.39271445,12.5483423 7.1190179,11.9498158 7.1190179,11.283877 C7.1190179,9.95192213 8.21302279,8.8707754 9.5606443,8.8707754 C10.2349239,8.8707754 10.8501356,9.14127444 11.288847,9.58520788 L12.0022707,10.2799495 L12.7156944,9.57532382 C13.1544058,9.14127444 13.7696176,8.8707754 14.4438971,8.8707754 C15.7915968,8.8707754 16.8855235,9.95192213 16.8855235,11.283877 C16.8855235,11.9498158 16.611827,12.557763 16.1720998,12.9923529 L16.1720998,12.9923529 L16.1720998,12.9923529 Z"
         id="path15"
         sketch:type="MSShapeGroup"
         fill="#000000"
         style="fill:#ffffff" />
    </g>
  </g>
</svg>
