<?xml version="1.0" encoding="UTF-8" standalone="no"?>
<svg
   xmlns:dc="http://purl.org/dc/elements/1.1/"
   xmlns:cc="http://creativecommons.org/ns#"
   xmlns:rdf="http://www.w3.org/1999/02/22-rdf-syntax-ns#"
   xmlns:svg="http://www.w3.org/2000/svg"
   xmlns="http://www.w3.org/2000/svg"
   xmlns:sodipodi="http://sodipodi.sourceforge.net/DTD/sodipodi-0.dtd"
   xmlns:inkscape="http://www.inkscape.org/namespaces/inkscape"
   width="79"
   height="16"
   viewBox="0 0 79 16"
   id="svg2"
   version="1.1"
   inkscape:version="0.91 r13725"
   sodipodi:docname="ic_google_play_logo_grayscale.svg">
  <metadata
     id="metadata10">
    <rdf:RDF>
      <cc:Work
         rdf:about="">
        <dc:format>image/svg+xml</dc:format>
        <dc:type
           rdf:resource="http://purl.org/dc/dcmitype/StillImage" />
      </cc:Work>
    </rdf:RDF>
  </metadata>
  <defs
     id="defs8" />
  <sodipodi:namedview
     pagecolor="#ffffff"
     bordercolor="#666666"
     borderopacity="1"
     objecttolerance="10"
     gridtolerance="10"
     guidetolerance="10"
     inkscape:pageopacity="0"
     inkscape:pageshadow="2"
     inkscape:window-width="745"
     inkscape:window-height="480"
     id="namedview6"
     showgrid="false"
     inkscape:zoom="3.1518987"
     inkscape:cx="39.5"
     inkscape:cy="8"
     inkscape:window-x="0"
     inkscape:window-y="0"
     inkscape:window-maximized="0"
     inkscape:current-layer="svg2" />
  <path
     d="M25.228 4.478c-2.211 0-3.97 1.66-3.97 3.975a3.949 3.949 0 0 0 3.97 3.975c2.21 0 3.97-1.66 3.97-3.975 0-2.315-1.76-3.975-3.97-3.975zm0 6.39c-1.206 0-2.211-1.006-2.211-2.415s1.055-2.415 2.21-2.415c1.157 0 2.212.956 2.212 2.415.05 1.409-1.005 2.415-2.211 2.415zm10.654-5.484h-.05a2.832 2.832 0 0 0-2.061-.906c-1.96 0-3.82 1.761-3.82 3.975 0 2.214 1.81 3.975 3.82 3.975.955 0 1.709-.403 2.06-.906h.05v.553c0 1.51-.803 2.315-2.11 2.315-1.055 0-1.709-.755-2.01-1.409l-1.508.654C30.705 14.692 31.861 16 33.771 16c2.06 0 3.77-1.208 3.77-4.126V4.73h-1.66v.654zm-2.01 5.484c-1.207 0-2.212-1.006-2.212-2.365 0-1.409 1.005-2.415 2.212-2.415 1.206 0 2.11 1.006 2.11 2.415.05 1.359-.904 2.365-2.11 2.365zm-17.288-6.39c-2.211 0-3.97 1.66-3.97 3.975a3.949 3.949 0 0 0 3.97 3.975c2.211 0 3.97-1.66 3.97-3.975 0-2.315-1.81-3.975-3.97-3.975zm0 6.39c-1.206 0-2.211-1.006-2.211-2.415s1.055-2.415 2.211-2.415 2.211.956 2.211 2.415c0 1.409-1.005 2.415-2.211 2.415zM6.232 5.686v1.66h4.02c-.1.956-.452 1.66-.905 2.113-.603.604-1.507 1.208-3.115 1.208-2.463 0-4.423-2.013-4.423-4.478 0-2.466 1.96-4.478 4.423-4.478 1.356 0 2.311.503 3.015 1.207l1.206-1.207C9.448.755 8.09 0 6.232 0 2.865 0 0 2.767 0 6.138s2.865 6.139 6.232 6.139c1.809 0 3.216-.604 4.271-1.711 1.106-1.107 1.458-2.667 1.458-3.924 0-.403-.05-.755-.1-1.057H6.23v.1zm42.213 1.308c-.351-.906-1.357-2.516-3.367-2.516-2.06 0-3.719 1.61-3.719 3.975 0 2.214 1.659 3.975 3.92 3.975 1.81 0 2.865-1.107 3.317-1.761L47.24 9.76c-.452.654-1.055 1.107-1.96 1.107-.904 0-1.507-.403-1.91-1.208l5.277-2.213-.2-.453zm-5.377 1.358c-.05-1.51 1.206-2.314 2.06-2.314.704 0 1.257.352 1.458.855l-3.518 1.46zm-4.322 3.824h1.76V.503h-1.76v11.673zM56.586.503h-4.17v11.673h1.758V7.748h2.413c1.91 0 3.819-1.408 3.819-3.622S58.546.503 56.586.503zm.05 5.635h-2.462V2.164h2.463a2.025 2.025 0 0 1 2.06 2.012c0 .855-.754 1.962-2.06 1.962zm4.725 6.038h1.759V.503h-1.76v11.673zm6.03-7.698c-1.256 0-2.563.553-3.116 1.761l1.558.654c.352-.654.955-.855 1.608-.855.905 0 1.81.553 1.81 1.51v.1c-.302-.201-1.005-.453-1.81-.453-1.658 0-3.367.906-3.367 2.616 0 1.56 1.357 2.566 2.915 2.566 1.156 0 1.81-.503 2.211-1.157h.05v.906h1.659V7.648c0-2.013-1.508-3.17-3.518-3.17zm-.2 6.39c-.554 0-1.358-.302-1.358-1.006 0-.906 1.005-1.258 1.86-1.258.754 0 1.105.15 1.608.402-.201 1.057-1.106 1.862-2.11 1.862zm9.85-6.138L75.03 9.76h-.05L72.92 4.73h-1.86l3.116 7.044-1.76 3.924h1.81L79 4.68h-1.96v.05z"
     fill="#000"
     fill-rule="nonzero"
     opacity=".54"
     id="path4"
     style="fill:#ffffff" />
</svg>
