<?xml version="1.0" encoding="UTF-8" standalone="no"?>
<!-- Generator: Adobe Illustrator 22.1.0, SVG Export Plug-In . SVG Version: 6.00 Build 0)  -->

<svg
   xmlns:dc="http://purl.org/dc/elements/1.1/"
   xmlns:cc="http://creativecommons.org/ns#"
   xmlns:rdf="http://www.w3.org/1999/02/22-rdf-syntax-ns#"
   xmlns:svg="http://www.w3.org/2000/svg"
   xmlns="http://www.w3.org/2000/svg"
   xmlns:sodipodi="http://sodipodi.sourceforge.net/DTD/sodipodi-0.dtd"
   xmlns:inkscape="http://www.inkscape.org/namespaces/inkscape"
   version="1.1"
   id="Layer_1"
   x="0px"
   y="0px"
   width="79px"
   height="16px"
   viewBox="0 0 79 16"
   enable-background="new 0 0 79 16"
   xml:space="preserve"
   sodipodi:docname="ic_google_play_wordmark.svg"
   inkscape:version="0.92.3 (2405546, 2018-03-11)"><metadata
   id="metadata9"><rdf:RDF><cc:Work
       rdf:about=""><dc:format>image/svg+xml</dc:format><dc:type
         rdf:resource="http://purl.org/dc/dcmitype/StillImage" /></cc:Work></rdf:RDF></metadata><defs
   id="defs7" /><sodipodi:namedview
   pagecolor="#ffffff"
   bordercolor="#666666"
   borderopacity="1"
   objecttolerance="10"
   gridtolerance="10"
   guidetolerance="10"
   inkscape:pageopacity="0"
   inkscape:pageshadow="2"
   inkscape:window-width="640"
   inkscape:window-height="480"
   id="namedview5"
   showgrid="false"
   inkscape:zoom="3.5063291"
   inkscape:cx="39.5"
   inkscape:cy="8"
   inkscape:window-x="0"
   inkscape:window-y="0"
   inkscape:window-maximized="0"
   inkscape:current-layer="Layer_1" />
<path
   enable-background="new    "
   d="M25.23,4.48c-2.21,0-3.97,1.66-3.97,3.97c-0.01,2.18,1.74,3.96,3.92,3.97c0.02,0,0.03,0,0.05,0  c2.21,0,3.97-1.66,3.97-3.98S27.44,4.48,25.23,4.48z M25.23,10.87c-1.21,0-2.21-1.01-2.21-2.41s1.06-2.41,2.21-2.41  c1.16,0,2.21,0.96,2.21,2.41C27.49,9.86,26.43,10.87,25.23,10.87z M35.88,5.38h-0.05c-0.53-0.57-1.28-0.9-2.06-0.91  c-1.96,0-3.82,1.76-3.82,3.97s1.81,3.98,3.82,3.98c0.96,0,1.71-0.4,2.06-0.91h0.05v0.55c0,1.51-0.8,2.32-2.11,2.32  c-1.06,0-1.71-0.76-2.01-1.41l-1.51,0.65C30.7,14.69,31.86,16,33.77,16c2.06,0,3.77-1.21,3.77-4.13V4.73h-1.66L35.88,5.38  L35.88,5.38z M33.87,10.87c-1.21,0-2.21-1.01-2.21-2.36c0-1.41,1-2.41,2.21-2.41c1.21,0,2.11,1.01,2.11,2.41  C36.03,9.86,35.08,10.87,33.87,10.87z M16.58,4.48c-2.21,0-3.97,1.66-3.97,3.97c-0.01,2.18,1.74,3.96,3.92,3.97  c0.02,0,0.03,0,0.05,0c2.21,0,3.97-1.66,3.97-3.98S18.74,4.48,16.58,4.48z M16.58,10.87c-1.21,0-2.21-1.01-2.21-2.41  s1.06-2.41,2.21-2.41s2.21,0.96,2.21,2.41C18.8,9.86,17.79,10.87,16.58,10.87z M6.23,5.69v1.66h4.02c-0.1,0.96-0.45,1.66-0.9,2.11  c-0.6,0.6-1.51,1.21-3.11,1.21c-2.46,0-4.42-2.01-4.42-4.48c0-2.47,1.96-4.48,4.42-4.48c1.36,0,2.31,0.5,3.02,1.21l1.21-1.21  C9.45,0.75,8.09,0,6.23,0C2.87,0,0,2.77,0,6.14s2.87,6.14,6.23,6.14c1.81,0,3.22-0.6,4.27-1.71c1.11-1.11,1.46-2.67,1.46-3.92  c0-0.4-0.05-0.76-0.1-1.06H6.23L6.23,5.69L6.23,5.69z M48.44,6.99c-0.35-0.91-1.36-2.52-3.37-2.52c-2.06,0-3.72,1.61-3.72,3.97  c0,2.21,1.66,3.98,3.92,3.98c1.81,0,2.87-1.11,3.32-1.76l-1.36-0.91c-0.45,0.65-1.06,1.11-1.96,1.11c-0.9,0-1.51-0.4-1.91-1.21  l5.28-2.21L48.44,6.99L48.44,6.99z M43.07,8.35c-0.05-1.51,1.21-2.31,2.06-2.31c0.7,0,1.26,0.35,1.46,0.86L43.07,8.35L43.07,8.35z   M38.75,12.18h1.76V0.5h-1.76V12.18z M56.59,0.5h-4.17v11.67h1.76V7.75h2.41c1.91,0,3.82-1.41,3.82-3.62S58.55,0.5,56.59,0.5z   M56.64,6.14h-2.46V2.16h2.46c1.12-0.02,2.04,0.87,2.06,1.99c0,0.01,0,0.01,0,0.02C58.7,5.03,57.94,6.14,56.64,6.14L56.64,6.14z   M61.36,12.18h1.76V0.5h-1.76L61.36,12.18L61.36,12.18z M67.39,4.48c-1.26,0-2.56,0.55-3.12,1.76l1.56,0.65  c0.35-0.65,0.96-0.86,1.61-0.86c0.9,0,1.81,0.55,1.81,1.51v0.1c-0.3-0.2-1-0.45-1.81-0.45c-1.66,0-3.37,0.91-3.37,2.62  c0,1.56,1.36,2.57,2.92,2.57c1.16,0,1.81-0.5,2.21-1.16h0.05v0.91h1.66V7.65C70.91,5.63,69.4,4.48,67.39,4.48z M67.19,10.87  c-0.55,0-1.36-0.3-1.36-1.01c0-0.91,1-1.26,1.86-1.26c0.75,0,1.11,0.15,1.61,0.4C69.1,10.06,68.19,10.87,67.19,10.87z M77.04,4.73  l-2.01,5.03h-0.05l-2.06-5.03h-1.86l3.12,7.04l-1.76,3.92h1.81L79,4.68h-1.96L77.04,4.73L77.04,4.73z"
   id="path2"
   style="fill:#ffffff" />
</svg>