<?xml version="1.0" encoding="UTF-8" standalone="no"?>
<svg
   xmlns:sketch="http://www.bohemiancoding.com/sketch/ns"
   xmlns:dc="http://purl.org/dc/elements/1.1/"
   xmlns:cc="http://creativecommons.org/ns#"
   xmlns:rdf="http://www.w3.org/1999/02/22-rdf-syntax-ns#"
   xmlns:svg="http://www.w3.org/2000/svg"
   xmlns="http://www.w3.org/2000/svg"
   xmlns:sodipodi="http://sodipodi.sourceforge.net/DTD/sodipodi-0.dtd"
   xmlns:inkscape="http://www.inkscape.org/namespaces/inkscape"
   width="24px"
   height="24px"
   viewBox="0 0 24 24"
   version="1.1"
   id="svg3841"
   inkscape:version="0.91 r13725"
   sodipodi:docname="ic_play_movies_24px.svg">
  <metadata
     id="metadata3854">
    <rdf:RDF>
      <cc:Work
         rdf:about="">
        <dc:format>image/svg+xml</dc:format>
        <dc:type
           rdf:resource="http://purl.org/dc/dcmitype/StillImage" />
        <dc:title>ic_play_movies_24px</dc:title>
      </cc:Work>
    </rdf:RDF>
  </metadata>
  <sodipodi:namedview
     pagecolor="#ffffff"
     bordercolor="#666666"
     borderopacity="1"
     objecttolerance="10"
     gridtolerance="10"
     guidetolerance="10"
     inkscape:pageopacity="0"
     inkscape:pageshadow="2"
     inkscape:window-width="1920"
     inkscape:window-height="1026"
     id="namedview3852"
     showgrid="false"
     inkscape:zoom="34.916667"
     inkscape:cx="12"
     inkscape:cy="12"
     inkscape:window-x="0"
     inkscape:window-y="0"
     inkscape:window-maximized="1"
     inkscape:current-layer="svg3841" />
  <!-- Generator: Sketch 3.5.2 (25235) - http://www.bohemiancoding.com/sketch -->
  <title
     id="title3843">ic_play_movies_24px</title>
  <desc
     id="desc3845">Created with Sketch.</desc>
  <defs
     id="defs3847" />
  <g
     id="Page-1"
     stroke="none"
     stroke-width="1"
     fill="none"
     fill-rule="evenodd"
     sketch:type="MSPage"
     style="fill:#ffffff">
    <g
       id="ic_movies_24px"
       sketch:type="MSLayerGroup"
       fill="#000000"
       style="fill:#ffffff">
      <path
         d="M2,4 L2,20 L22,20 L22,4 L2,4 L2,4 Z M6,17 L4,17 L4,15 L6,15 L6,17 L6,17 Z M6,13 L4,13 L4,11 L6,11 L6,13 L6,13 Z M6,9 L4,9 L4,7 L6,7 L6,9 L6,9 Z M20,17 L18,17 L18,15 L20,15 L20,17 L20,17 Z M20,13 L18,13 L18,11 L20,11 L20,13 L20,13 Z M20,9 L18,9 L18,7 L20,7 L20,9 L20,9 Z"
         id="Shape"
         sketch:type="MSShapeGroup"
         style="fill:#ffffff" />
    </g>
  </g>
</svg>
