<?xml version="1.0" encoding="UTF-8" standalone="no"?>
<!-- Generator: Adobe Illustrator 22.1.0, SVG Export Plug-In . SVG Version: 6.00 Build 0)  -->

<svg
   xmlns:dc="http://purl.org/dc/elements/1.1/"
   xmlns:cc="http://creativecommons.org/ns#"
   xmlns:rdf="http://www.w3.org/1999/02/22-rdf-syntax-ns#"
   xmlns:svg="http://www.w3.org/2000/svg"
   xmlns="http://www.w3.org/2000/svg"
   xmlns:sodipodi="http://sodipodi.sourceforge.net/DTD/sodipodi-0.dtd"
   xmlns:inkscape="http://www.inkscape.org/namespaces/inkscape"
   version="1.1"
   id="Layer_1"
   x="0px"
   y="0px"
   width="24px"
   height="24px"
   viewBox="0 0 24 24"
   enable-background="new 0 0 24 24"
   xml:space="preserve"
   inkscape:version="0.91 r13725"
   sodipodi:docname="ic_playprotect_gm2_24dp.svg"><metadata
     id="metadata11"><rdf:RDF><cc:Work
         rdf:about=""><dc:format>image/svg+xml</dc:format><dc:type
           rdf:resource="http://purl.org/dc/dcmitype/StillImage" /></cc:Work></rdf:RDF></metadata><defs
     id="defs9" /><sodipodi:namedview
     pagecolor="#ffffff"
     bordercolor="#666666"
     borderopacity="1"
     objecttolerance="10"
     gridtolerance="10"
     guidetolerance="10"
     inkscape:pageopacity="0"
     inkscape:pageshadow="2"
     inkscape:window-width="640"
     inkscape:window-height="480"
     id="namedview7"
     showgrid="false"
     inkscape:zoom="9.8333333"
     inkscape:cx="12"
     inkscape:cy="12"
     inkscape:window-x="0"
     inkscape:window-y="0"
     inkscape:window-maximized="0"
     inkscape:current-layer="Layer_1" /><rect
     fill="none"
     width="24"
     height="24"
     id="rect3" /><path
     d="M12,1L3,5v6c0,5.55,3.84,10.74,9,12c5.16-1.26,9-6.45,9-12V5L12,1z M19,11c0.02,4.46-2.79,8.45-7,9.93  C7.79,19.45,4.98,15.46,5,11V6.3l7-3.11l7,3.11V11z M15.63,12.67l-5.49,3.14c-0.38,0.2-0.86,0.04-1.05-0.35  c-0.05-0.1-0.08-0.2-0.09-0.31V8.87C9.02,8.44,9.38,8.1,9.81,8.11c0.12,0,0.24,0.04,0.35,0.09l5.49,3.14  c0.36,0.24,0.46,0.72,0.23,1.08C15.81,12.53,15.73,12.6,15.63,12.67z"
     id="path5"
     style="fill:#ffffff" /></svg>