<?xml version="1.0" encoding="UTF-8" standalone="no"?>
<svg
   xmlns:dc="http://purl.org/dc/elements/1.1/"
   xmlns:cc="http://creativecommons.org/ns#"
   xmlns:rdf="http://www.w3.org/1999/02/22-rdf-syntax-ns#"
   xmlns:svg="http://www.w3.org/2000/svg"
   xmlns="http://www.w3.org/2000/svg"
   xmlns:sodipodi="http://sodipodi.sourceforge.net/DTD/sodipodi-0.dtd"
   xmlns:inkscape="http://www.inkscape.org/namespaces/inkscape"
   id="ic_loyalty_outline_24px"
   width="24"
   height="24"
   viewBox="0 0 24 24"
   version="1.1"
   inkscape:version="0.91 r13725"
   sodipodi:docname="ic_play_apps_gm2_24dp.svg">
  <metadata
     id="metadata13">
    <rdf:RDF>
      <cc:Work
         rdf:about="">
        <dc:format>image/svg+xml</dc:format>
        <dc:type
           rdf:resource="http://purl.org/dc/dcmitype/StillImage" />
      </cc:Work>
    </rdf:RDF>
  </metadata>
  <defs
     id="defs11" />
  <sodipodi:namedview
     pagecolor="#ffffff"
     bordercolor="#666666"
     borderopacity="1"
     objecttolerance="10"
     gridtolerance="10"
     guidetolerance="10"
     inkscape:pageopacity="0"
     inkscape:pageshadow="2"
     inkscape:window-width="640"
     inkscape:window-height="480"
     id="namedview9"
     showgrid="false"
     inkscape:zoom="9.8333333"
     inkscape:cx="12"
     inkscape:cy="12"
     inkscape:window-x="0"
     inkscape:window-y="0"
     inkscape:window-maximized="0"
     inkscape:current-layer="ic_loyalty_outline_24px" />
  <title
     id="title3">ic_play_apps</title>
  <rect
     width="24"
     height="24"
     fill="none"
     id="rect5" />
  <path
     d="M7,15H9v2H7Zm8,0h2v2H15Zm-4,0h2v2H11ZM7,11H9v2H7Zm8,0h2v2H15Zm-4,0h2v2H11ZM7,7H9V9H7Zm8,0h2V9H15ZM11,7h2V9H11ZM5,3H19a2,2,0,0,1,2,2V19a2,2,0,0,1-2,2H5a2,2,0,0,1-2-2V5A2,2,0,0,1,5,3ZM5,5V19H19V5Z"
     fill="#231f20"
     id="path7"
     style="fill:#ffffff" />
</svg>
