<?xml version="1.0" encoding="UTF-8" standalone="no"?>
<svg
   xmlns:sketch="http://www.bohemiancoding.com/sketch/ns"
   xmlns:dc="http://purl.org/dc/elements/1.1/"
   xmlns:cc="http://creativecommons.org/ns#"
   xmlns:rdf="http://www.w3.org/1999/02/22-rdf-syntax-ns#"
   xmlns:svg="http://www.w3.org/2000/svg"
   xmlns="http://www.w3.org/2000/svg"
   xmlns:sodipodi="http://sodipodi.sourceforge.net/DTD/sodipodi-0.dtd"
   xmlns:inkscape="http://www.inkscape.org/namespaces/inkscape"
   width="24px"
   height="24px"
   viewBox="0 0 24 24"
   version="1.1"
   id="svg2"
   inkscape:version="0.91 r13725"
   sodipodi:docname="ic_reward_24px.svg">
  <metadata
     id="metadata16">
    <rdf:RDF>
      <cc:Work
         rdf:about="">
        <dc:format>image/svg+xml</dc:format>
        <dc:type
           rdf:resource="http://purl.org/dc/dcmitype/StillImage" />
        <dc:title>ic_reward_24px</dc:title>
      </cc:Work>
    </rdf:RDF>
  </metadata>
  <sodipodi:namedview
     pagecolor="#ffffff"
     bordercolor="#666666"
     borderopacity="1"
     objecttolerance="10"
     gridtolerance="10"
     guidetolerance="10"
     inkscape:pageopacity="0"
     inkscape:pageshadow="2"
     inkscape:window-width="1920"
     inkscape:window-height="1026"
     id="namedview14"
     showgrid="false"
     inkscape:zoom="9.8333333"
     inkscape:cx="12.20339"
     inkscape:cy="12"
     inkscape:window-x="0"
     inkscape:window-y="0"
     inkscape:window-maximized="1"
     inkscape:current-layer="svg2" />
  <!-- Generator: Sketch 3.4.4 (17249) - http://www.bohemiancoding.com/sketch -->
  <title
     id="title4">ic_reward_24px</title>
  <desc
     id="desc6">Created with Sketch.</desc>
  <defs
     id="defs8" />
  <g
     id="Page-1"
     stroke="none"
     stroke-width="1"
     fill="none"
     fill-rule="evenodd"
     sketch:type="MSPage"
     style="fill:#ffffff">
    <g
       id="My-account-assets"
       sketch:type="MSLayerGroup"
       transform="translate(-102.000000, -21.000000)"
       fill="#000000"
       style="fill:#ffffff">
      <g
         id="ic_reward_24px"
         transform="translate(102.000000, 21.000000)"
         sketch:type="MSShapeGroup"
         style="fill:#ffffff">
        <path
           d="M10,12 L10,19 L4,19 L4,8 L20,8 L20,19 L14,19 L14,12 L20,12 L20,10 L14,10 L14,8 L10,8 L10,10 L4,10 L4,12 L10,12 Z M11.976294,6 C11.98431,5.98328633 11.9922124,5.96650469 12,5.94965656 C12.0077876,5.96650469 12.01569,5.98328633 12.023706,6 L11.976294,6 Z M6.17070571,6 C6.06015422,5.68722107 6,5.35063542 6,5 C6,3.34314575 7.34314575,2 9,2 C10.3249554,2 11.4492973,2.85892856 12,4.05034344 C12.5507027,2.85892856 13.6750446,2 15,2 C16.6568542,2 18,3.34314575 18,5 C18,5.35063542 17.9398458,5.68722107 17.8292943,6 L20.0092049,6 C21.1086907,6 22,6.89339733 22,7.99188419 L22,19.0081158 C22,20.1082031 21.1017876,21 20.0092049,21 L3.99079514,21 C2.89130934,21 2,20.1066027 2,19.0081158 L2,7.99188419 C2,6.89179693 2.89821238,6 3.99079514,6 L6.17070571,6 Z M9,4 C9.55,4 10,4.45 10,5 C10,5.55 9.55,6 9,6 C8.45,6 8,5.55 8,5 C8,4.45 8.45,4 9,4 Z M15,4 C15.55,4 16,4.45 16,5 C16,5.55 15.55,6 15,6 C14.45,6 14,5.55 14,5 C14,4.45 14.45,4 15,4 Z"
           id="Oval-7"
           style="fill:#ffffff" />
      </g>
    </g>
  </g>
</svg>
