<?xml version="1.0" encoding="UTF-8"?>
<svg width="20px" height="20px" viewBox="0 0 20 20" version="1.1" xmlns="http://www.w3.org/2000/svg" xmlns:xlink="http://www.w3.org/1999/xlink">
    <!-- Generator: Sketch 54.1 (76490) - https://sketchapp.com -->
    <title>ic/star_circle</title>
    <desc>Created with Sketch.</desc>
    <defs>
        <path d="M11.99,2 C17.52,2 22,6.48 22,12 C22,17.52 17.52,22 11.99,22 C6.47,22 2,17.52 2,12 C2,6.48 6.47,2 11.99,2 Z M11.992,4 C7.576,4 4,7.584 4,12 C4,16.416 7.576,20 11.992,20 C16.416,20 20,16.416 20,12 C20,7.584 16.416,4 11.992,4 Z M15.7105263,17.5 L12,15.1461538 L8.28947368,17.5 L9.27192982,13.06 L6,10.0784615 L10.3157895,9.69076923 L12,5.5 L13.6842105,9.68153846 L18,10.0692308 L14.7280702,13.0507692 L15.7105263,17.5 Z" fill="#ffffffff" id="path-1"></path>
    </defs>
    <g id="Page-1" stroke="none" stroke-width="1" fill="none" fill-rule="evenodd">
        <g id="Components" transform="translate(-362.000000, -394.000000)">
            <g id="ic/ic_star_circle" transform="translate(360.000000, 392.000000)">
                <g id="ic/ic_share">
                    <mask id="mask-2" fill="white">
                        <use xlink:href="#path-1"></use>
                    </mask>
                    <use id="Shape" fill="#ffffffff" fill-rule="nonzero" xlink:href="#path-1"></use>

                        <g id="color/grey700">
                            <rect id="Rectangle" x="0" y="0" width="24" height="24"></rect>
                        </g>
                </g>
            </g>
        </g>
    </g>
</svg>
