<?xml version="1.0" encoding="UTF-8" standalone="no"?>
<svg
   xmlns:dc="http://purl.org/dc/elements/1.1/"
   xmlns:cc="http://creativecommons.org/ns#"
   xmlns:rdf="http://www.w3.org/1999/02/22-rdf-syntax-ns#"
   xmlns:svg="http://www.w3.org/2000/svg"
   xmlns="http://www.w3.org/2000/svg"
   xmlns:sodipodi="http://sodipodi.sourceforge.net/DTD/sodipodi-0.dtd"
   xmlns:inkscape="http://www.inkscape.org/namespaces/inkscape"
   width="24"
   height="24"
   viewBox="0 0 24 24"
   id="svg3655"
   version="1.1"
   inkscape:version="0.91 r13725"
   sodipodi:docname="ic_ticket_24dp.svg">
  <metadata
     id="metadata3663">
    <rdf:RDF>
      <cc:Work
         rdf:about="">
        <dc:format>image/svg+xml</dc:format>
        <dc:type
           rdf:resource="http://purl.org/dc/dcmitype/StillImage" />
        <dc:title></dc:title>
      </cc:Work>
    </rdf:RDF>
  </metadata>
  <defs
     id="defs3661" />
  <sodipodi:namedview
     pagecolor="#ffffff"
     bordercolor="#666666"
     borderopacity="1"
     objecttolerance="10"
     gridtolerance="10"
     guidetolerance="10"
     inkscape:pageopacity="0"
     inkscape:pageshadow="2"
     inkscape:window-width="1920"
     inkscape:window-height="1026"
     id="namedview3659"
     showgrid="false"
     inkscape:zoom="34.916667"
     inkscape:cx="12"
     inkscape:cy="12"
     inkscape:window-x="0"
     inkscape:window-y="0"
     inkscape:window-maximized="1"
     inkscape:current-layer="svg3655" />
  <path
     fill-rule="evenodd"
     clip-rule="evenodd"
     d="M16.17 10.35l-3-.26L12 7.33l-1.17 2.76-3 .26 2.27 1.97-.68 2.93L12 13.7l2.57 1.55-.68-2.93 2.28-1.97zM9.5 22H6.01C5.45 22 5 21.54 5 21.01V2.99C5 2.44 5.45 2 6.01 2H9.5c0 1.38 1.12 2.5 2.5 2.5s2.5-1.12 2.5-2.5h3.49c.56 0 1.01.46 1.01.99v18.02c0 .55-.45.99-1.01.99H14.5c0-1.38-1.12-2.5-2.5-2.5S9.5 20.62 9.5 22z"
     id="path3657"
     style="fill:#ffffff" />
</svg>
