<?xml version="1.0" encoding="UTF-8" standalone="no"?>
<svg
   xmlns:dc="http://purl.org/dc/elements/1.1/"
   xmlns:cc="http://creativecommons.org/ns#"
   xmlns:rdf="http://www.w3.org/1999/02/22-rdf-syntax-ns#"
   xmlns:svg="http://www.w3.org/2000/svg"
   xmlns="http://www.w3.org/2000/svg"
   xmlns:sodipodi="http://sodipodi.sourceforge.net/DTD/sodipodi-0.dtd"
   xmlns:inkscape="http://www.inkscape.org/namespaces/inkscape"
   width="110px"
   height="24px"
   viewBox="0 0 110 24"
   version="1.1"
   id="svg2"
   inkscape:version="0.91 r13725"
   sodipodi:docname="play_store_110px.svg">
  <metadata
     id="metadata21">
    <rdf:RDF>
      <cc:Work
         rdf:about="">
        <dc:format>image/svg+xml</dc:format>
        <dc:type
           rdf:resource="http://purl.org/dc/dcmitype/StillImage" />
      </cc:Work>
    </rdf:RDF>
  </metadata>
  <sodipodi:namedview
     pagecolor="#ffffff"
     bordercolor="#666666"
     borderopacity="1"
     objecttolerance="10"
     gridtolerance="10"
     guidetolerance="10"
     inkscape:pageopacity="0"
     inkscape:pageshadow="2"
     inkscape:window-width="697"
     inkscape:window-height="480"
     id="namedview19"
     showgrid="false"
     inkscape:zoom="2.2636364"
     inkscape:cx="55"
     inkscape:cy="12"
     inkscape:window-x="0"
     inkscape:window-y="0"
     inkscape:window-maximized="0"
     inkscape:current-layer="svg2" />
  <!-- Generator: Sketch 3.8.2 (29753) - http://www.bohemiancoding.com/sketch -->
  <title
     id="title4">play_store_154px</title>
  <desc
     id="desc6">Created with Sketch.</desc>
  <defs
     id="defs8" />
  <g
     id="Page-1"
     stroke="none"
     stroke-width="1"
     fill="none"
     fill-rule="evenodd"
     style="fill:#ffffff">
    <g
       id="play_store_100px"
       fill="#000000"
       style="fill:#ffffff">
      <g
         id="g12"
         style="fill:#ffffff">
        <g
           id="d20_apps_360dp-copy-12"
           style="fill:#ffffff">
          <g
             id="action_bar"
             style="fill:#ffffff">
            <g
               id="play_store"
               transform="translate(0, 3)"
               style="fill:#ffffff">
              <g
                 id="Group"
                 style="fill:#ffffff">
                <path
                   d="M33.4814791,5.79852679 C30.5818248,5.79852679 28.2189711,7.98712054 28.2189711,11.0027902 C28.2189711,13.9999777 30.5818248,16.2070536 33.4814791,16.2070536 C36.3811334,16.2070536 38.7439871,13.9984375 38.7439871,11.0027902 C38.7439871,7.98712054 36.3811334,5.79852679 33.4814791,5.79852679 L33.4814791,5.79852679 L33.4814791,5.79852679 Z M33.4814791,14.1586161 C31.8927974,14.1586161 30.5228698,12.8571652 30.5228698,11.0043304 C30.5228698,9.13147321 31.8927974,7.85004464 33.4814791,7.85004464 C35.0701608,7.85004464 36.4400884,9.13147321 36.4400884,11.0043304 C36.4400884,12.8571652 35.0701608,14.1586161 33.4814791,14.1586161 L33.4814791,14.1586161 L33.4814791,14.1586161 Z M22.0007717,5.79852679 C19.1011174,5.79852679 16.7382637,7.98712054 16.7382637,11.0027902 C16.7382637,13.9999777 19.1011174,16.2070536 22.0007717,16.2070536 C24.900426,16.2070536 27.2632797,13.9984375 27.2632797,11.0027902 C27.2632797,7.98712054 24.900426,5.79852679 22.0007717,5.79852679 L22.0007717,5.79852679 L22.0007717,5.79852679 Z M22.0007717,14.1586161 C20.41209,14.1586161 19.0421624,12.8571652 19.0421624,11.0043304 C19.0421624,9.13147321 20.41209,7.85004464 22.0007717,7.85004464 C23.5894534,7.85004464 24.959381,9.13147321 24.959381,11.0043304 C24.9609325,12.8571652 23.5894534,14.1586161 22.0007717,14.1586161 L22.0007717,14.1586161 L22.0007717,14.1586161 Z M8.34493569,7.39569196 L8.34493569,9.60430804 L13.6663987,9.60430804 C13.5081511,10.845692 13.0908119,11.7528571 12.4547186,12.3843304 C11.6805466,13.1528795 10.4688666,14.0015179 8.34338424,14.0015179 C5.0667283,14.0015179 2.50528939,11.3801339 2.50528939,8.12573661 C2.50528939,4.87287946 5.0667283,2.24995536 8.34338424,2.24995536 C10.1104823,2.24995536 11.4012862,2.93995536 12.355426,3.82709821 L13.9239389,2.26997768 C12.5927974,1.00857143 10.8256994,0.0428794643 8.34338424,0.0428794643 C3.85504823,0.0428794643 0.0819292605,3.67 0.0819292605,8.12573661 C0.0819292605,12.5814732 3.85504823,16.2085938 8.34338424,16.2085938 C10.7667444,16.2085938 12.5927974,15.4200223 14.0232315,13.9414509 C15.4924518,12.4829018 15.9501286,10.4313839 15.9501286,8.77569196 C15.9501286,8.2628125 15.909791,7.78997768 15.8306672,7.39569196 L8.34493569,7.39569196 L8.34493569,7.39569196 L8.34493569,7.39569196 Z M64.1954743,9.11145089 C63.7579662,7.94861607 62.4283762,5.80006696 59.7071383,5.80006696 C57.0060691,5.80006696 54.7626768,7.91011161 54.7626768,11.0043304 C54.7626768,13.9214286 56.9874518,16.2085938 59.9662299,16.2085938 C62.3694212,16.2085938 63.7595177,14.7500446 64.3351045,13.9014063 L62.5478376,12.7185491 C61.952082,13.5856696 61.1375723,14.1570759 59.9662299,14.1570759 C58.7948875,14.1570759 57.960209,13.6241741 57.4249598,12.579933 L64.4359486,9.70133929 L64.1954743,9.11145089 L64.1954743,9.11145089 L64.1954743,9.11145089 Z M57.0464068,10.845692 C56.9874518,8.83421875 58.6149196,7.81 59.7862621,7.81 C60.7000643,7.81 61.4742363,8.2628125 61.7317765,8.91430804 L57.0464068,10.845692 L57.0464068,10.845692 L57.0464068,10.845692 Z M51.3463907,15.8928571 L53.6502894,15.8928571 L53.6502894,0.594263393 L51.3463907,0.594263393 L51.3463907,15.8928571 L51.3463907,15.8928571 L51.3463907,15.8928571 Z M47.5732717,6.96136161 L47.4941479,6.96136161 C46.9775161,6.34991071 45.98459,5.79852679 44.7341238,5.79852679 C42.1121785,5.79852679 39.7089871,8.08569196 39.7089871,11.0228125 C39.7089871,13.9414509 42.1121785,16.2085938 44.7341238,16.2085938 C45.98459,16.2085938 46.9775161,15.6572098 47.4941479,15.0257366 L47.5732717,15.0257366 L47.5732717,15.7742634 C47.5732717,17.7657143 46.5012219,18.8299777 44.77291,18.8299777 C43.3626447,18.8299777 42.4891801,17.8242411 42.1323473,16.9771429 L40.1263264,17.8057589 C40.7019132,19.1857589 42.2316399,20.8814955 44.77291,20.8814955 C47.4739791,20.8814955 49.757709,19.3043527 49.757709,15.460067 L49.757709,6.11426339 L47.5732717,6.11426339 L47.5732717,6.96136161 L47.5732717,6.96136161 L47.5732717,6.96136161 Z M44.932709,14.1586161 C43.3440273,14.1586161 42.0128859,12.8371429 42.0128859,11.0243527 C42.0128859,9.19154018 43.3440273,7.85004464 44.932709,7.85004464 C46.5012219,7.85004464 47.7330707,9.19 47.7330707,11.0243527 C47.7330707,12.8371429 46.5012219,14.1586161 44.932709,14.1586161 L44.932709,14.1586161 L44.932709,14.1586161 Z M74.9873392,0.594263393 L69.4750482,0.594263393 L69.4750482,15.8928571 L71.7742926,15.8928571 L71.7742926,10.0971652 L74.9857878,10.0971652 C77.5348151,10.0971652 80.0419534,8.26435268 80.0419534,5.34571429 C80.0419534,2.42707589 77.5363666,0.594263393 74.9873392,0.594263393 L74.9873392,0.594263393 L74.9873392,0.594263393 Z M75.0462942,7.96709821 L71.7742926,7.96709821 L71.7742926,2.72279018 L75.0462942,2.72279018 C76.7652974,2.72279018 77.742709,4.13667411 77.742709,5.34417411 C77.742709,6.53165179 76.7668489,7.96709821 75.0462942,7.96709821 L75.0462942,7.96709821 L75.0462942,7.96709821 Z M89.2622026,5.77080357 C87.5975,5.77080357 85.872291,6.49930804 85.1586254,8.11341518 L87.2003296,8.95897321 C87.6362862,8.11341518 88.4492444,7.83772321 89.3025402,7.83772321 C90.4925,7.83772321 91.7010772,8.54620536 91.721246,9.80607143 L91.721246,9.96316964 C91.3054582,9.72752232 90.4133762,9.37328125 89.322709,9.37328125 C87.1227572,9.37328125 84.8824678,10.5746205 84.8824678,12.8171205 C84.8824678,14.8640179 86.6868006,16.1824107 88.708336,16.1824107 C90.2551286,16.1824107 91.106873,15.4939509 91.6421222,14.6868973 L91.721246,14.6868973 L91.721246,15.8682143 L93.9413666,15.8682143 L93.9413666,10.0032143 C93.9398151,7.28633929 91.8981109,5.77080357 89.2622026,5.77080357 L89.2622026,5.77080357 L89.2622026,5.77080357 Z M88.9844936,14.1555357 C88.2304904,14.1555357 87.1801608,13.7812723 87.1801608,12.8571652 C87.1801608,11.6758482 88.4880305,11.2230357 89.6190354,11.2230357 C90.6305788,11.2230357 91.1053215,11.4402009 91.721246,11.734375 C91.5412781,13.1513393 90.3125322,14.1555357 88.9844936,14.1555357 L88.9844936,14.1555357 L88.9844936,14.1555357 Z M102.029059,6.10502232 L99.3915997,12.7385714 L99.3124759,12.7385714 L96.5772749,6.10502232 L94.0996141,6.10502232 L98.2031913,15.3753571 L95.8636093,20.531875 L98.2621463,20.531875 L104.585844,6.10502232 L102.029059,6.10502232 L102.029059,6.10502232 L102.029059,6.10502232 Z M81.311037,15.8928571 L83.6102814,15.8928571 L83.6102814,0.594263393 L81.311037,0.594263393 L81.311037,15.8928571 L81.311037,15.8928571 L81.311037,15.8928571 Z"
                   id="Google-Play"
                   style="fill:#ffffff" />
              </g>
            </g>
          </g>
        </g>
      </g>
    </g>
  </g>
</svg>
