<?xml version="1.0" encoding="UTF-8" standalone="no"?>
<svg
   xmlns:dc="http://purl.org/dc/elements/1.1/"
   xmlns:cc="http://creativecommons.org/ns#"
   xmlns:rdf="http://www.w3.org/1999/02/22-rdf-syntax-ns#"
   xmlns:svg="http://www.w3.org/2000/svg"
   xmlns="http://www.w3.org/2000/svg"
   xmlns:sodipodi="http://sodipodi.sourceforge.net/DTD/sodipodi-0.dtd"
   xmlns:inkscape="http://www.inkscape.org/namespaces/inkscape"
   width="100px"
   height="21px"
   viewBox="0 0 100 21"
   version="1.1"
   id="svg2"
   inkscape:version="0.91 r13725"
   sodipodi:docname="play_logo_horizontal.svg">
  <metadata
     id="metadata72">
    <rdf:RDF>
      <cc:Work
         rdf:about="">
        <dc:format>image/svg+xml</dc:format>
        <dc:type
           rdf:resource="http://purl.org/dc/dcmitype/StillImage" />
      </cc:Work>
    </rdf:RDF>
  </metadata>
  <sodipodi:namedview
     pagecolor="#ffffff"
     bordercolor="#666666"
     borderopacity="1"
     objecttolerance="10"
     gridtolerance="10"
     guidetolerance="10"
     inkscape:pageopacity="0"
     inkscape:pageshadow="2"
     inkscape:window-width="1920"
     inkscape:window-height="1026"
     id="namedview70"
     showgrid="false"
     inkscape:zoom="9.96"
     inkscape:cx="50.803213"
     inkscape:cy="10.5"
     inkscape:window-x="0"
     inkscape:window-y="0"
     inkscape:window-maximized="1"
     inkscape:current-layer="svg2" />
  <title
     id="title4">play-logo-horizontal</title>
  <defs
     id="defs6">
    <linearGradient
       x1="61.0159818%"
       y1="4.95488722%"
       x2="26.4538759%"
       y2="72.093985%"
       id="linearGradient-1">
      <stop
         stop-color="#00A0FF"
         offset="0%"
         id="stop9" />
      <stop
         stop-color="#00A1FF"
         offset="0.6574452%"
         id="stop11" />
      <stop
         stop-color="#00BEFF"
         offset="26.01%"
         id="stop13" />
      <stop
         stop-color="#00D2FF"
         offset="51.22%"
         id="stop15" />
      <stop
         stop-color="#00DFFF"
         offset="76.04%"
         id="stop17" />
      <stop
         stop-color="#00E3FF"
         offset="100%"
         id="stop19" />
    </linearGradient>
    <linearGradient
       x1="108.036533%"
       y1="50.0088235%"
       x2="-131.119505%"
       y2="50.0088235%"
       id="linearGradient-2">
      <stop
         stop-color="#FFE000"
         offset="0%"
         id="stop22" />
      <stop
         stop-color="#FFBD00"
         offset="40.87%"
         id="stop24" />
      <stop
         stop-color="#FFA500"
         offset="77.54%"
         id="stop26" />
      <stop
         stop-color="#FF9C00"
         offset="100%"
         id="stop28" />
    </linearGradient>
    <linearGradient
       x1="86.3541353%"
       y1="30.7366763%"
       x2="-50.2146617%"
       y2="136.564996%"
       id="linearGradient-3">
      <stop
         stop-color="#FF3A44"
         offset="0%"
         id="stop31" />
      <stop
         stop-color="#C31162"
         offset="100%"
         id="stop33" />
    </linearGradient>
    <linearGradient
       x1="-18.8379699%"
       y1="-12.250998%"
       x2="42.1454887%"
       y2="35.0054714%"
       id="linearGradient-4">
      <stop
         stop-color="#32A071"
         offset="0%"
         id="stop36" />
      <stop
         stop-color="#2DA771"
         offset="6.85%"
         id="stop38" />
      <stop
         stop-color="#15CF74"
         offset="47.62%"
         id="stop40" />
      <stop
         stop-color="#06E775"
         offset="80.09%"
         id="stop42" />
      <stop
         stop-color="#00F076"
         offset="100%"
         id="stop44" />
    </linearGradient>
  </defs>
  <g
     id="Stonger-branding"
     stroke-width="1"
     stroke="none"
     fill-rule="evenodd"
     fill="none">
    <g
       id="03a---Color-Logo-with-12dp-padding"
       transform="translate(-17.000000, -333.000000)"
       fill-rule="nonzero">
      <g
         id="play-logo-horizontal"
         transform="translate(16.000000, 332.000000)">
        <polygon
           id="Rectangle-path"
           points="0 0 101 0 101 23.6344863 0 23.6344863"
           fill-opacity="0"
           fill="#000000" />
        <path
           d="M49.3568273,9.07368913 C47.2508281,9.07368913 45.5756014,10.6854209 45.5756014,12.9320774 C45.5756014,15.1298935 47.2986917,16.7904657 49.3568273,16.7904657 C51.4628266,16.7904657 53.1380533,15.1787339 53.1380533,12.9320774 C53.1380533,10.6854209 51.4628266,9.07368913 49.3568273,9.07368913 Z M49.3568273,15.2764146 C48.2081005,15.2764146 47.2508281,14.2996074 47.2508281,12.9320774 C47.2508281,11.5645474 48.2559641,10.5877402 49.3568273,10.5877402 C50.4576906,10.5877402 51.4628266,11.515707 51.4628266,12.9320774 C51.5106902,14.2996074 50.5055542,15.2764146 49.3568273,15.2764146 Z M59.5039148,9.95281558 L59.4560512,9.95281558 C59.0731422,9.51325235 58.3551879,9.07368913 57.4936428,9.07368913 C55.6269616,9.07368913 53.8560076,10.7831017 53.8560076,12.9320774 C53.8560076,15.0810532 55.5790979,16.7904657 57.4936428,16.7904657 C58.4030515,16.7904657 59.1210058,16.3997428 59.4560512,15.9113393 L59.5039148,15.9113393 L59.5039148,16.4485832 C59.5039148,17.9137939 58.7380969,18.6952397 57.4936428,18.6952397 C56.4885067,18.6952397 55.8662797,17.9626343 55.5790979,17.3277096 L54.1431893,17.9626343 C54.5739619,18.9882818 55.6748252,20.2581311 57.4936428,20.2581311 C59.4560512,20.2581311 61.0834143,19.0859625 61.0834143,16.2532218 L61.0834143,9.31789092 L59.5039148,9.31789092 L59.5039148,9.95281558 Z M57.58937,15.2764146 C56.4406431,15.2764146 55.4833707,14.2996074 55.4833707,12.9809178 C55.4833707,11.6133878 56.4406431,10.6365806 57.58937,10.6365806 C58.7380969,10.6365806 59.599642,11.6133878 59.599642,12.9809178 C59.6475057,14.2996074 58.7380969,15.2764146 57.58937,15.2764146 Z M41.1242847,9.07368913 C39.0182854,9.07368913 37.3430587,10.6854209 37.3430587,12.9320774 C37.3430587,15.1298935 39.066149,16.7904657 41.1242847,16.7904657 C43.230284,16.7904657 44.9055107,15.1787339 44.9055107,12.9320774 C44.9055107,10.6854209 43.1824204,9.07368913 41.1242847,9.07368913 Z M41.1242847,15.2764146 C39.9755578,15.2764146 39.0182854,14.2996074 39.0182854,12.9320774 C39.0182854,11.5645474 40.0234214,10.5877402 41.1242847,10.5877402 C42.225148,10.5877402 43.230284,11.515707 43.230284,12.9320774 C43.230284,14.2996074 42.2730116,15.2764146 41.1242847,15.2764146 Z M31.264379,10.2458577 L31.264379,11.8575895 L35.0934686,11.8575895 C34.9977413,12.7855563 34.662696,13.4693214 34.2319234,13.9088846 C33.65756,14.4949689 32.7960148,15.0810532 31.264379,15.0810532 C28.9190616,15.0810532 27.0523804,13.1274389 27.0523804,10.7342613 C27.0523804,8.34108376 28.9190616,6.38746944 31.264379,6.38746944 C32.5566967,6.38746944 33.4661055,6.87587302 34.1361962,7.55963803 L35.284923,6.38746944 C34.3276506,5.45950263 33.0353329,4.72689726 31.264379,4.72689726 C28.0575164,4.72689726 25.3292901,7.41311696 25.3292901,10.6854209 C25.3292901,13.9577249 28.0575164,16.6439446 31.264379,16.6439446 C32.9874693,16.6439446 34.3276506,16.0578603 35.3327867,14.9833725 C36.3857863,13.9088846 36.7208316,12.3948335 36.7208316,11.1738245 C36.7208316,10.7831017 36.672968,10.4412192 36.6251044,10.148177 L31.264379,10.148177 L31.264379,10.2458577 Z M71.4698198,11.515707 C71.1347745,10.6365806 70.1775021,9.07368913 68.2629573,9.07368913 C66.3005488,9.07368913 64.7210494,10.6365806 64.7210494,12.9320774 C64.7210494,15.0810532 66.3005488,16.7904657 68.4544117,16.7904657 C70.1775021,16.7904657 71.1826381,15.7159778 71.6134107,15.0810532 L70.3210929,14.2019267 C69.8903203,14.8368514 69.3159569,15.2764146 68.4544117,15.2764146 C67.5928666,15.2764146 67.0185031,14.8856917 66.6355942,14.104246 L71.6612743,11.9552703 L71.4698198,11.515707 Z M66.3484125,12.8343967 C66.3005488,11.369186 67.4971393,10.5877402 68.3108209,10.5877402 C68.9809116,10.5877402 69.5074114,10.9296227 69.6988659,11.4180263 L66.3484125,12.8343967 Z M62.2321411,16.5462639 L63.9073678,16.5462639 L63.9073678,5.21530084 L62.2321411,5.21530084 L62.2321411,16.5462639 Z M79.2237263,5.21530084 L75.2510458,5.21530084 L75.2510458,16.5462639 L76.9262725,16.5462639 L76.9262725,12.2483124 L79.2237263,12.2483124 C81.0425438,12.2483124 82.8613614,10.8807824 82.8613614,8.73180663 C82.8613614,6.58283087 81.0904074,5.21530084 79.2237263,5.21530084 Z M79.2715899,10.6854209 L76.9262725,10.6854209 L76.9262725,6.82703266 L79.2715899,6.82703266 C80.516044,6.82703266 81.2339983,7.85268018 81.2339983,8.78064698 C81.2339983,9.61093307 80.516044,10.6854209 79.2715899,10.6854209 Z M83.7707702,16.5462639 L85.4459969,16.5462639 L85.4459969,5.21530084 L83.7707702,5.21530084 L83.7707702,16.5462639 Z M89.5144046,9.07368913 C88.3178141,9.07368913 87.0733599,9.61093307 86.5468601,10.7831017 L88.0306324,11.4180263 C88.3656777,10.7831017 88.9400411,10.5877402 89.5622682,10.5877402 C90.4238134,10.5877402 91.2853585,11.1249842 91.2853585,12.052951 L91.2853585,12.1506317 C90.9981768,11.9552703 90.3280861,11.7110685 89.5622682,11.7110685 C87.9827687,11.7110685 86.3554056,12.5901949 86.3554056,14.2507671 C86.3554056,15.7648182 87.6477234,16.7416253 89.1314956,16.7416253 C90.2323589,16.7416253 90.8545859,16.2532218 91.2374949,15.6182971 L91.2853585,15.6182971 L91.2853585,16.4974236 L92.864858,16.4974236 L92.864858,12.1506317 C92.864858,10.1970174 91.4289494,9.07368913 89.5144046,9.07368913 Z M89.3229501,15.2764146 C88.7964503,15.2764146 88.0306324,14.9833725 88.0306324,14.2996074 C88.0306324,13.420481 88.9879048,13.0785985 89.8015863,13.0785985 C90.5195406,13.0785985 90.8545859,13.2251196 91.3332221,13.4693214 C91.1417677,14.4949689 90.2802225,15.2764146 89.3229501,15.2764146 Z M98.7042196,9.31789092 L96.7896748,14.2019267 L96.7418112,14.2019267 L94.7794028,9.31789092 L93.0084488,9.31789092 L95.9759933,16.1555411 L94.3007666,19.965089 L96.0238569,19.965089 L100.570901,9.26905056 L98.7042196,9.26905056 L98.7042196,9.31789092 Z"
           id="Shape"
           fill="#000000"
           opacity="0.54" />
        <g
           id="Group"
           transform="translate(1.355705, 1.350542)">
          <path
             d="M0.529795125,0.530570101 C0.288979159,0.771738329 0.192652773,1.15760749 0.192652773,1.5917103 L0.192652773,18.6181872 C0.192652773,19.1005236 0.337142353,19.4863928 0.529795125,19.6793274 L0.577958319,19.727561 L10.1142706,10.2255329 L10.1142706,10.1290656 L10.1142706,10.0325983 L0.577958319,0.482336455 L0.529795125,0.530570101 Z"
             id="path52"
             fill="url(#linearGradient-1)" />
          <path
             d="M13.2930413,13.4089535 L10.1142706,10.2255329 L10.1142706,10.1290656 L10.1142706,10.0325983 L13.2930413,6.84917767 L13.3412045,6.89741131 L17.0979336,9.01969172 C18.1575238,9.64672911 18.1575238,10.611402 17.0979336,11.2384394 L13.3412045,13.3607198 L13.2930413,13.4089535 Z"
             id="path54"
             fill="url(#linearGradient-2)" />
          <path
             d="M13.3412045,13.3607198 L10.1142706,10.1290656 L0.529795125,19.727561 C0.866937478,20.1134302 1.49305899,20.1616638 2.1191805,19.7757947 L13.3412045,13.3607198"
             id="path56"
             fill="url(#linearGradient-3)" />
          <path
             d="M13.3412045,6.89741131 L2.1191805,0.482336455 C1.4448958,0.0964672911 0.866937478,0.144700937 0.529795125,0.530570101 L10.1142706,10.1290656 L13.3412045,6.89741131 Z"
             id="path58"
             fill="url(#linearGradient-4)" />
          <g
             transform="translate(0.000000, 13.023084)"
             id="g60"
             fill="#000000">
            <path
               d="M13.2930413,0.289401873 L2.1191805,6.65624309 C1.49305899,6.9938786 0.915100671,6.9938786 0.577958319,6.65624309 L0.577958319,6.65624309 L0.529795125,6.70447673 L0.529795125,6.70447673 L0.577958319,6.75271038 L0.577958319,6.75271038 C0.915100671,7.0903459 1.49305899,7.0903459 2.1191805,6.75271038 L13.3412045,0.385869164 L13.2930413,0.289401873 Z"
               id="path62"
               opacity="0.2" />
            <path
               d="M0.529795125,6.60800944 C0.288979159,6.36684121 0.192652773,5.98097205 0.192652773,5.54686924 L0.192652773,5.64333653 C0.192652773,6.12567298 0.337142353,6.51154215 0.529795125,6.70447673 L0.577958319,6.65624309 L0.529795125,6.60800944 Z"
               id="path64"
               opacity="0.12" />
          </g>
          <path
             d="M17.0979336,11.1419721 L13.2448781,13.3124862 L13.2930413,13.3607198 L17.0497704,11.2384394 C17.5795655,10.9490375 17.8685447,10.5149347 17.8685447,10.1290656 L17.8685447,10.1290656 C17.8685447,10.5149347 17.6277287,10.8525702 17.0979336,11.1419721 Z"
             id="path66"
             fill="#000000"
             opacity="0.12" />
          <path
             d="M2.1191805,0.578803747 L17.0979336,9.11615901 C17.5795655,9.40556088 17.8685447,9.7431964 17.9167079,10.1290656 L17.9167079,10.1290656 C17.9167079,9.7431964 17.6277287,9.30909359 17.0979336,9.01969172 L2.1191805,0.482336455 C1.05959025,-0.144700937 0.14448958,0.385869164 0.14448958,1.5917103 L0.14448958,1.68817759 C0.192652773,0.482336455 1.05959025,4.57966998e-15 2.1191805,0.578803747 Z"
             id="path68"
             fill="#FFFFFF"
             opacity="0.25" />
        </g>
      </g>
    </g>
  </g>
  <path
     style="opacity:1;fill:#ffffff;fill-opacity:1"
     d="m 28.880015,15.421286 c -2.005536,-0.485491 -3.793992,-2.284294 -4.333962,-4.359037 -0.227515,-0.874186 -0.157082,-2.4078747 0.150878,-3.2854198 0.599039,-1.7069809 2.15126,-3.195804 3.915993,-3.7560482 0.859652,-0.2729113 2.316481,-0.2936686 3.164184,-0.045084 0.734185,0.2152958 1.576547,0.6547687 2.088573,1.0896397 l 0.381745,0.3242216 -0.541505,0.5330345 -0.541506,0.5330345 -0.593251,-0.4052535 c -1.66817,-1.1395357 -3.974456,-0.855034 -5.36024,0.6612348 -2.011599,2.2010092 -1.364287,5.7397705 1.27896,6.9918925 0.588195,0.278631 0.804436,0.325097 1.652012,0.354989 0.732642,0.02584 1.107265,-0.0093 1.506024,-0.141102 1.307472,-0.432288 2.211408,-1.428402 2.43149,-2.679436 l 0.06623,-0.376506 -1.91218,0 -1.91218,0 0,-0.855081 0,-0.8550806 2.635542,0.026768 2.635542,0.026767 0.02882,0.9249737 c 0.05,1.604936 -0.414409,2.86602 -1.434441,3.895136 -1.040072,1.049333 -2.331608,1.559113 -3.915663,1.545544 -0.441767,-0.0038 -1.067748,-0.07092 -1.391069,-0.149187 z"
     id="path3432"
     inkscape:connector-curvature="0" />
  <path
     style="opacity:1;fill:#ffffff;fill-opacity:1"
     d="m 39.307229,15.644758 c -2.446447,-0.631059 -3.600685,-3.234156 -2.460769,-5.549654 0.583365,-1.1849829 1.669096,-1.8558268 3.113379,-1.9236738 0.693987,-0.032601 0.959289,-1.691e-4 1.420163,0.173607 1.084661,0.4089797 1.855902,1.1797797 2.25435,2.2530618 0.277486,0.747452 0.250613,2.026139 -0.05934,2.823588 -0.318245,0.818781 -1.234332,1.741778 -2.020144,2.035383 -0.740593,0.276709 -1.61837,0.350007 -2.247638,0.187688 z m 1.735927,-1.56069 c 0.80643,-0.413561 1.168623,-1.068387 1.172754,-2.120281 0.0024,-0.612753 -0.04435,-0.846645 -0.248039,-1.240804 -0.681475,-1.3187182 -2.369094,-1.5513629 -3.353059,-0.462231 -1.02316,1.132515 -0.745172,3.106202 0.532506,3.780737 0.560674,0.296001 1.366389,0.314097 1.895838,0.04258 z"
     id="path3434"
     inkscape:connector-curvature="0" />
  <path
     style="opacity:1;fill:#ffffff;fill-opacity:1"
     d="m 47.528853,15.644568 c -1.750029,-0.442121 -2.875428,-1.903832 -2.870957,-3.728905 0.0056,-2.2931949 1.645115,-3.8598209 3.921814,-3.7475025 2.614111,0.1289644 4.178274,2.6867775 3.216707,5.2601525 -0.302271,0.808949 -1.217211,1.733062 -2.008618,2.028757 -0.74139,0.277007 -1.616979,0.349683 -2.258946,0.187498 z m 1.762624,-1.567357 c 0.754134,-0.38473 1.210531,-1.187867 1.210531,-2.130211 0,-2.1370584 -2.341491,-3.1866034 -3.687946,-1.653077 -0.98628,1.123311 -0.689999,3.084377 0.566187,3.747566 0.566849,0.299261 1.365393,0.314186 1.911228,0.03572 z"
     id="path3436"
     inkscape:connector-curvature="0" />
  <path
     style="opacity:1;fill:#ffffff;fill-opacity:1"
     d="M 55.454234,19.056739 C 54.638004,18.78889 53.755342,18.044978 53.3703,17.300387 l -0.160788,-0.31093 0.677908,-0.307378 c 0.461353,-0.209188 0.690584,-0.269353 0.717587,-0.188343 0.08413,0.252399 0.781687,0.930878 1.089559,1.059765 0.177695,0.07439 0.584321,0.134511 0.903615,0.133602 1.181647,-0.0034 1.827303,-0.705073 1.915668,-2.081983 l 0.04796,-0.747411 -0.4634,0.353722 c -1.180603,0.901175 -2.947386,0.621524 -4.14199,-0.655604 -0.636446,-0.680413 -0.952122,-1.41693 -1.015601,-2.369542 -0.138928,-2.084877 1.357467,-3.8837911 3.338315,-4.0132057 0.576298,-0.037651 0.802136,-0.00519 1.222761,0.1757587 0.283751,0.1220665 0.593907,0.3081227 0.689234,0.4134582 0.244426,0.2700877 0.343004,0.2385645 0.343004,-0.1096858 l 0,-0.3012048 0.753012,0 0.753012,0 0,3.6964194 c 0,2.232191 -0.04323,3.930248 -0.109122,4.286714 -0.220899,1.194953 -0.84172,2.0756 -1.774195,2.516731 -0.69563,0.329085 -2.019251,0.429716 -2.70261,0.205469 z m 2.192091,-5.071284 c 0.609371,-0.386451 0.988213,-1.124911 0.988213,-1.92628 0,-1.451045 -0.834059,-2.4396768 -2.058233,-2.4396768 -1.783226,0 -2.77705,2.2897558 -1.66195,3.8291068 0.61174,0.844482 1.860077,1.089789 2.73197,0.53685 z"
     id="path3438"
     inkscape:connector-curvature="0" />
  <path
     style="opacity:1;fill:#ffffff;fill-opacity:1"
     d="m 61.24498,9.8574297 0,-5.6224899 0.803213,0 0.803213,0 0,5.6224899 0,5.6224903 -0.803213,0 -0.803213,0 0,-5.6224903 z"
     id="path3440"
     inkscape:connector-curvature="0" />
  <path
     style="opacity:1;fill:#ffffff;fill-opacity:1"
     d="m 66.666667,15.645716 c -1.492967,-0.343304 -2.548013,-1.465131 -2.82252,-3.001176 -0.329046,-1.841228 0.61255,-3.6990206 2.173021,-4.2874266 0.491796,-0.1854412 0.743378,-0.2183356 1.402511,-0.1833784 0.95504,0.050651 1.418868,0.2578481 2.081246,0.9297167 0.366058,0.371303 1.081404,1.5512173 1.081404,1.7837023 0,0.0282 -1.129072,0.536015 -2.509049,1.128485 l -2.509048,1.077217 0.174711,0.304777 c 0.09609,0.167628 0.375575,0.433633 0.621075,0.591122 0.8046,0.516156 1.990556,0.356902 2.664619,-0.357814 l 0.322168,-0.341598 0.566222,0.367377 c 0.311422,0.202057 0.566824,0.419319 0.567561,0.482804 7.33e-4,0.06349 -0.247305,0.342675 -0.551205,0.620422 -0.888506,0.812044 -2.124309,1.147543 -3.262716,0.88577 z m 0.416922,-4.498301 c 1.635158,-0.69238 1.690852,-0.725457 1.558122,-0.925359 -0.298894,-0.4501584 -0.653998,-0.6156303 -1.321148,-0.6156303 -0.545592,0 -0.698052,0.043191 -1.066468,0.3021235 -0.253311,0.1780338 -0.521439,0.4873158 -0.652816,0.7530118 -0.229187,0.46351 -0.402244,1.203901 -0.281398,1.203901 0.03737,0 0.831034,-0.323121 1.763708,-0.718047 z"
     id="path3442"
     inkscape:connector-curvature="0" />
  <path
     style="opacity:1;fill:#ffffff;fill-opacity:1"
     d="m 74.297189,9.8481739 0,-5.6317457 2.384538,0.034356 2.384538,0.034356 0.657366,0.3115097 c 0.897328,0.4252215 1.337671,0.8407009 1.72511,1.6276998 0.296145,0.6015559 0.327626,0.7509628 0.320814,1.5225347 -0.0057,0.6469628 -0.06001,0.9720057 -0.222721,1.3333311 -0.297811,0.6613274 -1.009804,1.3892641 -1.699689,1.7377501 -0.56085,0.283305 -0.635819,0.294154 -2.261804,0.327314 l -1.681727,0.0343 0,2.150172 0,2.150172 -0.803212,0 -0.803213,0 0,-5.6317461 z M 78.790263,9.6398067 C 79.438398,9.4766045 80.063841,8.8419327 80.198437,8.210855 80.432178,7.1149149 79.7926,6.098307 78.712847,5.8495131 78.46546,5.7925108 77.732179,5.7447682 77.083333,5.7434183 l -1.179719,-0.00245 0,2.0080321 0,2.0080321 1.210561,0 c 0.665808,0 1.420048,-0.05275 1.676088,-0.1172214 z"
     id="path3444"
     inkscape:connector-curvature="0" />
  <path
     style="opacity:1;fill:#ffffff;fill-opacity:1"
     d="m 82.831325,9.8574297 0,-5.6224899 0.803213,0 0.803213,0 0,5.6224899 0,5.6224903 -0.803213,0 -0.803213,0 0,-5.6224903 z"
     id="path3446"
     inkscape:connector-curvature="0" />
  <path
     style="opacity:1;fill:#ffffff;fill-opacity:1"
     d="m 87.006146,15.478494 c -0.982464,-0.383625 -1.558272,-1.20799 -1.562174,-2.23651 -0.0027,-0.719973 0.236114,-1.221107 0.820324,-1.721169 0.852855,-0.730012 2.550093,-0.968654 3.631094,-0.510553 0.213047,0.09028 0.408035,0.143475 0.433306,0.118204 0.100726,-0.100726 -0.179648,-0.845319 -0.394199,-1.04688 -0.741933,-0.6970097 -2.157371,-0.6801108 -2.742627,0.03274 l -0.207729,0.253018 -0.670785,-0.300961 C 85.944424,9.9008589 85.64257,9.7264886 85.64257,9.6788978 c 0,-0.2266988 0.768933,-0.9435773 1.282706,-1.1958708 0.519193,-0.2549546 0.676585,-0.2822238 1.628941,-0.2822238 0.95049,0 1.110344,0.027563 1.624659,0.2801291 0.648985,0.3186996 1.121739,0.8078031 1.422597,1.4717981 0.18737,0.4135236 0.210879,0.6976246 0.247596,2.9920486 l 0.04057,2.535141 -0.764096,0 -0.764095,0 0,-0.451808 c 0,-0.248494 -0.0214,-0.451807 -0.04756,-0.451807 -0.02616,0 -0.247485,0.199926 -0.491839,0.44428 -0.261039,0.26104 -0.603762,0.488564 -0.830955,0.551649 -0.583632,0.162058 -1.432515,0.12197 -1.984947,-0.09374 z m 2.018442,-1.309953 c 0.543466,-0.204895 1.336858,-1.176432 1.336858,-1.637031 0,-0.361088 -1.666461,-0.602944 -2.419757,-0.351182 -1.031524,0.344748 -1.27318,1.472138 -0.415326,1.937605 0.323564,0.175564 1.097453,0.201705 1.498225,0.05061 z"
     id="path3448"
     inkscape:connector-curvature="0" />
  <path
     style="opacity:1;fill:#ffffff;fill-opacity:1"
     d="m 93.56477,18.470899 c 0.103178,-0.236906 0.463796,-1.05836 0.801373,-1.825452 0.337577,-0.767092 0.613777,-1.439384 0.613777,-1.49398 0,-0.0546 -0.503116,-1.256795 -1.118035,-2.671552 -0.61492,-1.414756 -1.268326,-2.9224351 -1.452016,-3.3503969 l -0.33398,-0.7781125 0.83992,0 0.83992,0 0.980516,2.4552484 c 0.539284,1.350387 1.010697,2.436597 1.047584,2.413799 0.03689,-0.0228 0.490462,-1.127659 1.007946,-2.455248 l 0.940879,-2.4137994 0.877105,0 0.877105,0 -0.200209,0.4769077 C 99.17654,9.0906124 98.173337,11.451305 97.057316,14.074297 l -2.02913,4.769077 -0.825506,0.02913 -0.825506,0.02913 0.187596,-0.430737 z"
     id="path3450"
     inkscape:connector-curvature="0" />
</svg>
