<?xml version="1.0" encoding="UTF-8" standalone="no"?>
<svg
   xmlns:dc="http://purl.org/dc/elements/1.1/"
   xmlns:cc="http://creativecommons.org/ns#"
   xmlns:rdf="http://www.w3.org/1999/02/22-rdf-syntax-ns#"
   xmlns:svg="http://www.w3.org/2000/svg"
   xmlns="http://www.w3.org/2000/svg"
   xmlns:sodipodi="http://sodipodi.sourceforge.net/DTD/sodipodi-0.dtd"
   xmlns:inkscape="http://www.inkscape.org/namespaces/inkscape"
   viewBox="0 0 96 96"
   width="24px"
   height="24px"
   id="svg3914"
   version="1.1"
   inkscape:version="0.91 r13725"
   sodipodi:docname="ic_drawer_home.svg">
  <metadata
     id="metadata3922">
    <rdf:RDF>
      <cc:Work
         rdf:about="">
        <dc:format>image/svg+xml</dc:format>
        <dc:type
           rdf:resource="http://purl.org/dc/dcmitype/StillImage" />
        <dc:title></dc:title>
      </cc:Work>
    </rdf:RDF>
  </metadata>
  <defs
     id="defs3920" />
  <sodipodi:namedview
     pagecolor="#ffffff"
     bordercolor="#666666"
     borderopacity="1"
     objecttolerance="10"
     gridtolerance="10"
     guidetolerance="10"
     inkscape:pageopacity="0"
     inkscape:pageshadow="2"
     inkscape:window-width="1920"
     inkscape:window-height="1026"
     id="namedview3918"
     showgrid="false"
     inkscape:zoom="34.916667"
     inkscape:cx="12"
     inkscape:cy="12"
     inkscape:window-x="0"
     inkscape:window-y="0"
     inkscape:window-maximized="1"
     inkscape:current-layer="svg3914" />
  <path
     d="M81.6,21H63v-7.5L55.8,6H41l-8,7.5V21H15.6H8v8h0.2l0,44.1c0,4.1,3.3,6.9,7.4,6.9h66.1c4.1,0,6.4-2.8,6.4-6.9V28.6v-0.3V21  H81.6z M41,14h14v7H41V14z M62.8,51.5L56.5,55h0L38.4,65.3c-0.5,0.3-1.4,0.4-1.4,0.2v0c-1-0.2-1.1-0.7-1.1-1.6L36,36.4  c0-0.9,0.3-1.4,0.9-1.4h0c0.4,0,0.7-0.1,1.2,0.2L56,45.5v0l6.6,3.5C63.9,49.7,64.1,50.8,62.8,51.5z"
     id="path3916"
     style="fill:#ffffff" />
</svg>
