<?xml version="1.0" encoding="UTF-8" standalone="no"?>
<!-- Generator: Adobe Illustrator 22.1.0, SVG Export Plug-In . SVG Version: 6.00 Build 0)  -->

<svg
   xmlns:dc="http://purl.org/dc/elements/1.1/"
   xmlns:cc="http://creativecommons.org/ns#"
   xmlns:rdf="http://www.w3.org/1999/02/22-rdf-syntax-ns#"
   xmlns:svg="http://www.w3.org/2000/svg"
   xmlns="http://www.w3.org/2000/svg"
   xmlns:sodipodi="http://sodipodi.sourceforge.net/DTD/sodipodi-0.dtd"
   xmlns:inkscape="http://www.inkscape.org/namespaces/inkscape"
   version="1.1"
   id="Layer_1"
   x="0px"
   y="0px"
   width="24px"
   height="24px"
   viewBox="0 0 24 24"
   enable-background="new 0 0 24 24"
   xml:space="preserve"
   sodipodi:docname="ic_radio_start.svg"
   inkscape:version="0.92.3 (2405546, 2018-03-11)"><metadata
   id="metadata11"><rdf:RDF><cc:Work
       rdf:about=""><dc:format>image/svg+xml</dc:format><dc:type
         rdf:resource="http://purl.org/dc/dcmitype/StillImage" /></cc:Work></rdf:RDF></metadata><defs
   id="defs9" /><sodipodi:namedview
   pagecolor="#ffffff"
   bordercolor="#666666"
   borderopacity="1"
   objecttolerance="10"
   gridtolerance="10"
   guidetolerance="10"
   inkscape:pageopacity="0"
   inkscape:pageshadow="2"
   inkscape:window-width="640"
   inkscape:window-height="480"
   id="namedview7"
   showgrid="false"
   inkscape:zoom="9.8333333"
   inkscape:cx="12"
   inkscape:cy="12"
   inkscape:window-x="0"
   inkscape:window-y="0"
   inkscape:window-maximized="0"
   inkscape:current-layer="Layer_1" />
<path
   fill="none"
   d="M0,0h24v24H0V0z"
   id="path2" />
<path
   d="M12,9c-1.66,0-3,1.34-3,3c0,1.3,0.84,2.4,2,2.82V20h2v-5.18c1.16-0.41,2-1.51,2-2.82C15,10.34,13.66,9,12,9z M18.53,3.11  l-1.17,1.61c2.25,1.64,3.72,4.28,3.72,7.27c0,2.99-1.47,5.64-3.72,7.27l1.17,1.61c2.75-2,4.54-5.23,4.54-8.89S21.27,5.11,18.53,3.11  z M16.18,6.34L15,7.97c1.25,0.91,2.07,2.37,2.07,4.03s-0.82,3.12-2.07,4.03l1.18,1.63c1.75-1.27,2.89-3.33,2.89-5.66  S17.93,7.61,16.18,6.34z M2.93,12c0-2.99,1.47-5.64,3.72-7.27L5.47,3.11c-2.75,2-4.54,5.23-4.54,8.89s1.8,6.89,4.54,8.89l1.17-1.61  C4.4,17.64,2.93,14.99,2.93,12z M6.93,12c0-1.66,0.82-3.12,2.07-4.03L7.82,6.34C6.07,7.61,4.93,9.67,4.93,12s1.14,4.39,2.89,5.66  L9,16.03C7.75,15.12,6.93,13.66,6.93,12z"
   id="path4"
   style="fill:#ffffff" />
</svg>