<?xml version="1.0" encoding="utf-8"?>
<!-- Generator: Adobe Illustrator 21.0.2, SVG Export Plug-In . SVG Version: 6.00 Build 0)  -->
<svg version="1.1" id="Layer_2" xmlns="http://www.w3.org/2000/svg" xmlns:xlink="http://www.w3.org/1999/xlink" x="0px" y="0px"
	 width="24px" height="24px" viewBox="0 0 24 24" enable-background="new 0 0 24 24" xml:space="preserve" fill="#ffffffff">
<g>
	<g>
		<path d="M4,6H2v14c0,1.1,0.9,2,2,2h14v-2H4V6z M20,2H8C6.9,2,6,2.9,6,4v12c0,1.1,0.9,2,2,2h12c1.1,0,2-0.9,2-2V4
			C22,2.9,21.1,2,20,2z M14,4c1.66,0,3,1.34,3,3s-1.34,3-3,3c-1.66,0-3-1.34-3-3S12.34,4,14,4z M20,16H8v-1.5c0-1.99,4-3,6-3
			c2,0,6,1.01,6,3V16z"/>
	</g>
	<rect fill="none" width="24" height="24"/>
</g>
</svg>
