<?xml version="1.0" encoding="UTF-8" standalone="no"?>
<svg
   xmlns:dc="http://purl.org/dc/elements/1.1/"
   xmlns:cc="http://creativecommons.org/ns#"
   xmlns:rdf="http://www.w3.org/1999/02/22-rdf-syntax-ns#"
   xmlns:svg="http://www.w3.org/2000/svg"
   xmlns="http://www.w3.org/2000/svg"
   xmlns:sodipodi="http://sodipodi.sourceforge.net/DTD/sodipodi-0.dtd"
   xmlns:inkscape="http://www.inkscape.org/namespaces/inkscape"
   version="1.1"
   id="Layer_1"
   width="24px"
   height="24px"
   viewBox="-2 -1 24 24"
   enable-background="new -2 -1 24 24"
   xml:space="preserve"
   inkscape:version="0.91 r13725"
   sodipodi:docname="ic_play_protect_black_24dp.svg"><metadata
     id="metadata12"><rdf:RDF><cc:Work
         rdf:about=""><dc:format>image/svg+xml</dc:format><dc:type
           rdf:resource="http://purl.org/dc/dcmitype/StillImage" /><dc:title></dc:title></cc:Work></rdf:RDF></metadata><defs
     id="defs10" /><sodipodi:namedview
     pagecolor="#ffffff"
     bordercolor="#666666"
     borderopacity="1"
     objecttolerance="10"
     gridtolerance="10"
     guidetolerance="10"
     inkscape:pageopacity="0"
     inkscape:pageshadow="2"
     inkscape:window-width="1920"
     inkscape:window-height="1026"
     id="namedview8"
     showgrid="false"
     inkscape:zoom="9.8333333"
     inkscape:cx="12.20339"
     inkscape:cy="12"
     inkscape:window-x="0"
     inkscape:window-y="0"
     inkscape:window-maximized="1"
     inkscape:current-layer="Layer_1" /><g
     id="Page-1"><g
       id="ic_protect_black_24dp-copy-23"
       transform="translate(-2.000000, -1.000000)"><rect
         id="Rectangle-9"
         fill="none"
         width="24"
         height="24" /><path
         d="M21.6,3.9C16.9,1.6,12,1,12,1S7.1,1.6,2.4,3.9C2.2,5.1,2,6.4,2,7.8c0,1.4,0.2,2.7,0.5,3.9c0.7,2.7,2,5.1,3.8,7.1    c1.6,1.8,3.5,3.2,5.7,4.1c2.2-1,4.2-2.4,5.7-4.1c1.8-2,3.1-4.4,3.8-7.1c0.3-1.3,0.5-2.6,0.5-3.9C22,6.4,21.8,5.1,21.6,3.9z     M15.7,11.4l-5.9,3.4c-0.3,0.1-0.5,0.1-0.6,0l0,0C9.1,14.8,9,14.6,9,14.4V7.6c0-0.2,0.1-0.4,0.2-0.4l0,0C9.3,7,9.5,7,9.8,7.1    l5.9,3.4C16.1,10.8,16.1,11.2,15.7,11.4z"
         id="path6"
         style="fill:#ffffff" /></g></g></svg>