<?xml version="1.0" encoding="UTF-8" standalone="no"?>
<svg
   xmlns:dc="http://purl.org/dc/elements/1.1/"
   xmlns:cc="http://creativecommons.org/ns#"
   xmlns:rdf="http://www.w3.org/1999/02/22-rdf-syntax-ns#"
   xmlns:svg="http://www.w3.org/2000/svg"
   xmlns="http://www.w3.org/2000/svg"
   xmlns:sodipodi="http://sodipodi.sourceforge.net/DTD/sodipodi-0.dtd"
   xmlns:inkscape="http://www.inkscape.org/namespaces/inkscape"
   width="16px"
   height="16px"
   viewBox="0 0 16 16"
   id="svg2"
   version="1.1"
   inkscape:version="0.91 r13725"
   sodipodi:docname="ic_family_fop.svg">
  <metadata
     id="metadata12">
    <rdf:RDF>
      <cc:Work
         rdf:about="">
        <dc:format>image/svg+xml</dc:format>
        <dc:type
           rdf:resource="http://purl.org/dc/dcmitype/StillImage" />
      </cc:Work>
    </rdf:RDF>
  </metadata>
  <defs
     id="defs10" />
  <sodipodi:namedview
     pagecolor="#ffffff"
     bordercolor="#666666"
     borderopacity="1"
     objecttolerance="10"
     gridtolerance="10"
     guidetolerance="10"
     inkscape:pageopacity="0"
     inkscape:pageshadow="2"
     inkscape:window-width="792"
     inkscape:window-height="480"
     id="namedview8"
     showgrid="false"
     inkscape:zoom="14.75"
     inkscape:cx="8"
     inkscape:cy="8"
     inkscape:window-x="0"
     inkscape:window-y="0"
     inkscape:window-maximized="0"
     inkscape:current-layer="svg2" />
  <path
     d="M12.6666667,2.66666667 L2,2.66666667 C1.26,2.66666667 0.673333333,3.26 0.673333333,4 L0.666666667,12 C0.666666667,12.74 1.26,13.3333333 2,13.3333333 L12.6666667,13.3333333 C13.4066667,13.3333333 14,12.74 14,12 L14,4 C14,3.26 13.4066667,2.66666667 12.6666667,2.66666667 L12.6666667,2.66666667 Z M12.6666667,12 L2,12 L2,8 L12.6666667,8 L12.6666667,12 L12.6666667,12 Z M12.6666667,5.33333333 L2,5.33333333 L2,4 L12.6666667,4 L12.6666667,5.33333333 L12.6666667,5.33333333 Z"
     id="Shape"
     fill-opacity="0.54"
     fill="#000000"
     style="fill:#ffffff" />
  <circle
     id="Oval-13"
     fill="#109D58"
     cx="12"
     cy="12"
     r="4" />
  <path
     d="M12,11.0588235 C11.8423529,10.6512941 11.4007059,10.3529412 10.9411765,10.3529412 C10.3428235,10.3529412 9.88235294,10.8075294 9.88235294,11.4117647 C9.88235294,12.2421176 10.7748235,12.8842353 12,14.1176471 C13.2251765,12.8842353 14.1176471,12.2421176 14.1176471,11.4117647 C14.1176471,10.8075294 13.6571765,10.3529412 13.0588235,10.3529412 C12.5988235,10.3529412 12.1576471,10.6512941 12,11.0588235 Z"
     id="path6"
     fill="#FFFFFF" />
</svg>
