<?xml version="1.0" encoding="utf-8"?>
<!-- Generator: Adobe Illustrator 23.0.4, SVG Export Plug-In . SVG Version: 6.00 Build 0)  -->
<svg version="1.1" id="Layer_1" xmlns="http://www.w3.org/2000/svg" xmlns:xlink="http://www.w3.org/1999/xlink" x="0px" y="0px"
	 width="137px" height="30px" viewBox="0 0 137 30" enable-background="new 0 0 137 30" xml:space="preserve">
<g>
	<g id="play-logo-horizontal" transform="translate(48.000000, 8.000000)">
		<polygon id="Rectangle-path" fill-opacity="0" points="-65,-26 113,-26 113,38 -65,38 		"/>
		<g id="Group" transform="translate(17.000000, 18.000000)">
			
				<linearGradient id="SVGID_1_" gradientUnits="userSpaceOnUse" x1="-92.3368" y1="38.6325" x2="-92.6798" y2="37.9611" gradientTransform="matrix(14.6368 0 0 -28.5 1295.7843 1077.2142)">
				<stop  offset="0" style="stop-color:#00A0FF"/>
				<stop  offset="6.574452e-03" style="stop-color:#00A1FF"/>
				<stop  offset="0.2601" style="stop-color:#00BEFF"/>
				<stop  offset="0.5122" style="stop-color:#00D2FF"/>
				<stop  offset="0.7604" style="stop-color:#00DFFF"/>
				<stop  offset="1" style="stop-color:#00E3FF"/>
			</linearGradient>
			<path fill="url(#SVGID_1_)" d="M-64.22-25.21c-0.36,0.36-0.5,0.93-0.5,1.57V1.57c0,0.71,0.21,1.29,0.5,1.57l0.07,0.07
				l14.07-14.07V-11v-0.14l-14.07-14.14L-64.22-25.21z"/>
			
				<linearGradient id="SVGID_2_" gradientUnits="userSpaceOnUse" x1="-91.3053" y1="29.8382" x2="-93.6968" y2="29.8382" gradientTransform="matrix(11.475 0 0 -9.7143 1010.0459 278.8571)">
				<stop  offset="0" style="stop-color:#FFE000"/>
				<stop  offset="0.4087" style="stop-color:#FFBD00"/>
				<stop  offset="0.7754" style="stop-color:#FFA500"/>
				<stop  offset="1" style="stop-color:#FF9C00"/>
			</linearGradient>
			<path fill="url(#SVGID_2_)" d="M-45.39-6.14l-4.69-4.71V-11v-0.14l4.69-4.71l0.07,0.07l5.54,3.14c1.56,0.93,1.56,2.36,0,3.29
				l-5.54,3.14L-45.39-6.14z"/>
			
				<linearGradient id="SVGID_3_" gradientUnits="userSpaceOnUse" x1="-92.6145" y1="34.3992" x2="-93.9802" y2="33.3328" gradientTransform="matrix(18.9 0 0 -14.6802 1701.2817 497.2503)">
				<stop  offset="0" style="stop-color:#FF3A44"/>
				<stop  offset="1" style="stop-color:#C31162"/>
			</linearGradient>
			<path fill="url(#SVGID_3_)" d="M-45.32-6.21L-50.08-11L-64.22,3.21c0.5,0.57,1.42,0.64,2.34,0.07L-45.32-6.21"/>
			
				<linearGradient id="SVGID_4_" gradientUnits="userSpaceOnUse" x1="-93.6664" y1="34.665" x2="-93.0566" y2="34.1888" gradientTransform="matrix(18.9 0 0 -14.6802 1701.2817 482.5702)">
				<stop  offset="0" style="stop-color:#32A071"/>
				<stop  offset="0.0685" style="stop-color:#2DA771"/>
				<stop  offset="0.4762" style="stop-color:#15CF74"/>
				<stop  offset="0.8009" style="stop-color:#06E775"/>
				<stop  offset="1" style="stop-color:#00F076"/>
			</linearGradient>
			<path fill="url(#SVGID_4_)" d="M-45.32-15.79l-16.56-9.5c-0.99-0.57-1.85-0.5-2.34,0.07L-50.08-11L-45.32-15.79z"/>
			<g transform="translate(0.000000, 19.285714)">
				<path opacity="0.2" enable-background="new    " d="M-45.39-25.57l-16.48,9.43c-0.92,0.5-1.78,0.5-2.27,0l0,0l-0.07,0.07l0,0
					l0.07,0.07l0,0c0.5,0.5,1.35,0.5,2.27,0l16.56-9.43L-45.39-25.57z"/>
				<path opacity="0.12" enable-background="new    " d="M-64.22-16.21c-0.36-0.36-0.5-0.93-0.5-1.57v0.14
					c0,0.71,0.21,1.29,0.5,1.57l0.07-0.07L-64.22-16.21z"/>
			</g>
			<path opacity="0.12" enable-background="new    " d="M-39.78-9.5l-5.68,3.21l0.07,0.07l5.54-3.14c0.78-0.43,1.21-1.07,1.21-1.64
				l0,0C-38.64-10.43-38.99-9.93-39.78-9.5z"/>
			<path opacity="0.25" fill="#FFFFFF" enable-background="new    " d="M-61.87-25.14l22.1,12.64c0.71,0.43,1.14,0.93,1.21,1.5l0,0
				c0-0.57-0.43-1.21-1.21-1.64l-22.1-12.64c-1.56-0.93-2.91-0.14-2.91,1.64v0.14C-64.72-25.29-63.44-26-61.87-25.14z"/>
		</g>
		<path fill="#9AA0A6" d="M18.61,3.89c-2.84,0-5.11,2.18-5.11,5.22c0,2.97,2.33,5.22,5.11,5.22c2.84,0,5.11-2.18,5.11-5.22
			S21.45,3.89,18.61,3.89z M18.61,12.3c-1.55,0-2.84-1.33-2.84-3.18s1.36-3.18,2.84-3.18s2.84,1.26,2.84,3.18
			C21.51,10.97,20.16,12.3,18.61,12.3z M32.42,5.08h-0.07c-0.51-0.59-1.49-1.2-2.64-1.2c-2.53,0-4.91,2.32-4.91,5.22
			s2.33,5.22,4.91,5.22c1.22,0,2.2-0.53,2.64-1.2h0.07v0.72c0,1.99-1.04,3.04-2.71,3.04c-1.36,0-2.2-0.99-2.58-1.86l-1.93,0.86
			c0.58,1.39,2.07,3.11,4.53,3.11c2.64,0,4.84-1.59,4.84-5.43V4.22h-2.13v0.86C32.43,5.08,32.42,5.08,32.42,5.08z M29.84,12.3
			C28.29,12.3,27,10.97,27,9.2c0-1.86,1.29-3.18,2.84-3.18c1.55,0,2.71,1.33,2.71,3.18C32.62,10.97,31.39,12.3,29.84,12.3z
			 M7.33,3.89c-2.84,0-5.11,2.18-5.11,5.22c0,2.97,2.33,5.22,5.11,5.22c2.84,0,5.11-2.18,5.11-5.22S10.11,3.89,7.33,3.89z
			 M7.33,12.3c-1.55,0-2.84-1.33-2.84-3.18s1.36-3.18,2.84-3.18s2.84,1.26,2.84,3.18C10.17,10.97,8.88,12.3,7.33,12.3z M-5.99,5.49
			v2.18h5.17c-0.13,1.26-0.58,2.18-1.16,2.78c-0.78,0.79-1.93,1.59-4.01,1.59c-3.17,0-5.68-2.64-5.68-5.89s2.53-5.89,5.68-5.89
			c1.75,0,2.97,0.66,3.88,1.59l1.55-1.59C-1.86-1.01-3.59-2-5.99-2C-10.32-2-14,1.64-14,6.08s3.68,8.08,8.01,8.08
			c2.33,0,4.13-0.79,5.5-2.25c1.42-1.46,1.87-3.51,1.87-5.16c0-0.53-0.07-0.99-0.13-1.39h-7.24V5.49z M48.81,7.2
			c-0.45-1.2-1.75-3.32-4.33-3.32c-2.64,0-4.78,2.12-4.78,5.22c0,2.91,2.13,5.22,5.04,5.22c2.33,0,3.68-1.46,4.26-2.32l-1.75-1.2
			c-0.58,0.86-1.36,1.46-2.53,1.46c-1.16,0-1.93-0.53-2.46-1.59l6.79-2.91L48.81,7.2z M41.9,8.99C41.83,7,43.45,5.95,44.54,5.95
			c0.91,0,1.62,0.46,1.87,1.13L41.9,8.99z M36.4,14.03h2.26V-1.34H36.4V14.03z M59.27-1.34H53.9v15.36h2.26V8.2h3.11
			c2.46,0,4.91-1.86,4.91-4.76S61.79-1.34,59.27-1.34z M59.33,6.08h-3.17V0.84h3.17c1.68,0,2.64,1.39,2.64,2.64
			C61.98,4.62,61.02,6.08,59.33,6.08z M65.5,14.03h2.26V-1.34H65.5V14.03z M73.88,3.89c-1.62,0-3.3,0.72-4.01,2.32l2,0.86
			c0.45-0.86,1.22-1.13,2.07-1.13c1.16,0,2.33,0.72,2.33,1.99v0.13c-0.38-0.26-1.29-0.59-2.33-0.59c-2.13,0-4.33,1.2-4.33,3.45
			c0,2.05,1.75,3.38,3.75,3.38c1.49,0,2.33-0.66,2.84-1.53h0.07v1.2h2.13V8.07C78.4,5.42,76.47,3.89,73.88,3.89z M73.61,12.3
			c-0.71,0-1.75-0.39-1.75-1.33c0-1.2,1.29-1.66,2.39-1.66c0.97,0,1.42,0.2,2.07,0.53C76.07,11.24,74.92,12.3,73.61,12.3z
			 M86.68,4.22l-2.58,6.62h-0.07l-2.64-6.62H79l4.01,9.26l-2.26,5.16h2.33l6.14-14.5h-2.54V4.22z"/>
	</g>
</g>
<g>
</g>
<g>
</g>
<g>
</g>
<g>
</g>
<g>
</g>
<g>
</g>
<g>
</g>
<g>
</g>
<g>
</g>
<g>
</g>
<g>
</g>
<g>
</g>
<g>
</g>
<g>
</g>
<g>
</g>
</svg>
