<?xml version="1.0" encoding="UTF-8" standalone="no"?>
<!-- Generator: Adobe Illustrator 22.1.0, SVG Export Plug-In . SVG Version: 6.00 Build 0)  -->

<svg
   xmlns:dc="http://purl.org/dc/elements/1.1/"
   xmlns:cc="http://creativecommons.org/ns#"
   xmlns:rdf="http://www.w3.org/1999/02/22-rdf-syntax-ns#"
   xmlns:svg="http://www.w3.org/2000/svg"
   xmlns="http://www.w3.org/2000/svg"
   xmlns:sodipodi="http://sodipodi.sourceforge.net/DTD/sodipodi-0.dtd"
   xmlns:inkscape="http://www.inkscape.org/namespaces/inkscape"
   version="1.1"
   id="Layer_1"
   x="0px"
   y="0px"
   width="24px"
   height="24px"
   viewBox="0 0 24 24"
   style="enable-background:new 0 0 24 24;"
   xml:space="preserve"
   inkscape:version="0.91 r13725"
   sodipodi:docname="ic_settings_gm2_24dp.svg"><metadata
     id="metadata15"><rdf:RDF><cc:Work
         rdf:about=""><dc:format>image/svg+xml</dc:format><dc:type
           rdf:resource="http://purl.org/dc/dcmitype/StillImage" /></cc:Work></rdf:RDF></metadata><defs
     id="defs13" /><sodipodi:namedview
     pagecolor="#ffffff"
     bordercolor="#666666"
     borderopacity="1"
     objecttolerance="10"
     gridtolerance="10"
     guidetolerance="10"
     inkscape:pageopacity="0"
     inkscape:pageshadow="2"
     inkscape:window-width="640"
     inkscape:window-height="480"
     id="namedview11"
     showgrid="false"
     inkscape:zoom="9.8333333"
     inkscape:cx="12"
     inkscape:cy="12"
     inkscape:window-x="0"
     inkscape:window-y="0"
     inkscape:window-maximized="0"
     inkscape:current-layer="Layer_1" /><style
     type="text/css"
     id="style3">
	.st0{fill:none;}
</style><path
     d="M13.85,22.25h-3.7c-0.74,0-1.36-0.54-1.45-1.27l-0.27-1.89c-0.27-0.14-0.53-0.29-0.79-0.46l-1.8,0.72   c-0.7,0.26-1.47-0.03-1.81-0.65L2.2,15.53c-0.35-0.66-0.2-1.44,0.36-1.88l1.53-1.19c-0.01-0.15-0.02-0.3-0.02-0.46   c0-0.15,0.01-0.31,0.02-0.46l-1.52-1.19C1.98,9.9,1.83,9.09,2.2,8.47l1.85-3.19c0.34-0.62,1.11-0.9,1.79-0.63l1.81,0.73   c0.26-0.17,0.52-0.32,0.78-0.46L8.7,3.01c0.09-0.7,0.71-1.25,1.44-1.25h3.7c0.74,0,1.36,0.54,1.45,1.27l0.27,1.89   c0.27,0.14,0.53,0.29,0.79,0.46l1.8-0.72c0.71-0.26,1.48,0.03,1.82,0.65l1.84,3.18c0.36,0.66,0.2,1.44-0.36,1.88l-1.52,1.19   c0.01,0.15,0.02,0.3,0.02,0.46s-0.01,0.31-0.02,0.46l1.52,1.19c0.56,0.45,0.72,1.23,0.37,1.86l-1.86,3.22   c-0.34,0.62-1.11,0.9-1.8,0.63l-1.8-0.72c-0.26,0.17-0.52,0.32-0.78,0.46l-0.27,1.91C15.21,21.71,14.59,22.25,13.85,22.25z    M10.62,20.25h2.76l0.37-2.55l0.53-0.22c0.44-0.18,0.88-0.44,1.34-0.78l0.45-0.34l2.38,0.96l1.38-2.4l-2.03-1.58l0.07-0.56   c0.03-0.26,0.06-0.51,0.06-0.78s-0.03-0.53-0.06-0.78l-0.07-0.56l2.03-1.58l-1.39-2.4l-2.39,0.96L15.6,7.29   c-0.42-0.32-0.87-0.58-1.33-0.77L13.75,6.3l-0.37-2.55h-2.76L10.25,6.3L9.72,6.51C9.28,6.7,8.84,6.95,8.38,7.3L7.93,7.63L5.55,6.68   L4.16,9.07l2.03,1.58l-0.07,0.56C6.09,11.47,6.06,11.74,6.06,12s0.02,0.53,0.06,0.78l0.07,0.56l-2.03,1.58l1.38,2.4l2.39-0.96  l0.45,0.35c0.43,0.33,0.86,0.58,1.33,0.77l0.53,0.22L10.62,20.25z"
     id="path5"
     style="fill:#ffffff" /><circle
     cx="12"
     cy="12"
     r="3.5"
     id="circle7"
     style="fill:#ffffff" /><path
     class="st0"
     d="M0,0h24v24H0V0z"
     id="path9" /></svg>