<!-- Generator: Adobe Illustrator 23.0.4, SVG Export Plug-In . SVG Version: 6.00 Build 0)  -->
<svg xmlns:xlink="http://www.w3.org/1999/xlink"
		height="24"
		id="Layer_1"
		viewBox="0 0 24 24"
		width="24"
		xmlns="http://www.w3.org/2000/svg">
<style stype="text/css">
	.st0{fill:none;}
</style>
  <g>
	<path
      class="st0"
      d="M0,0h24v24H0V0z"/>
</g>
  <g>
	<g>
		<g>
			<path d="M10.51,10.86L8.6,8.96l-1.33,1.32l3.24,3.24l6.19-6.19L15.38,6L10.51,10.86z M21.46,8.69L17.6,2l-0.58-1H6.98L6.4,2
				L2.54,8.69l-0.58,1l0.58,1l3.86,6.69l0.58,1L7,18.41V23l5-2.19L17,23v-4.59l0.02-0.03l0.58-1l3.86-6.69l0.58-1L21.46,8.69z
				 M15.86,16.38H8.14L4.27,9.69L8.14,3h7.73l3.86,6.69L15.86,16.38z" fill="#ffffffff"/>
		</g>
	</g>
    <g>
		<path
        class="st0"
        d="M0,0h24v24H0V0z"/>
	</g>
</g>
</svg>
