<?xml version="1.0" encoding="utf-8"?>
<!-- Generator: Adobe Illustrator 19.2.1, SVG Export Plug-In . SVG Version: 6.00 Build 0)  -->
<svg version="1.1" id="Layer_1" xmlns="http://www.w3.org/2000/svg" xmlns:xlink="http://www.w3.org/1999/xlink" x="0px" y="0px"
	 width="123px" height="45px" viewBox="0 0 123 45" style="enable-background:new 0 0 123 45;" xml:space="preserve">
<style type="text/css">
	.st0{fill-opacity:0;}
	.st1{opacity:0.54;enable-background:new    ;}
	.st2{fill:url(#Shape_8_);}
	.st3{fill:url(#Shape_9_);}
	.st4{fill:url(#Shape_10_);}
	.st5{fill:url(#Shape_11_);}
	.st6{opacity:0.2;enable-background:new    ;}
	.st7{opacity:0.12;enable-background:new    ;}
	.st8{opacity:0.25;fill:#FFFFFF;enable-background:new    ;}
</style>
<title>Artboard Copy 3</title>
<desc>Created with Sketch.</desc>
<g id="Page-1">
	<g id="Artboard-Copy-3">
		<rect id="Rectangle-path" class="st0" width="123" height="45"/>
		<g id="Group-2" transform="translate(0.000000, 9.000000)">
			<path id="Shape" class="st1" d="M59.04,10.62c-2.61,0-4.73,1.99-4.73,4.72c0,2.72,2.13,4.72,4.73,4.72c2.61,0,4.73-2,4.73-4.72
				C63.78,12.61,61.65,10.62,59.04,10.62L59.04,10.62z M59.04,18.21c-1.43,0-2.66-1.18-2.66-2.86c0-1.7,1.23-2.86,2.66-2.86
				c1.43,0,2.66,1.16,2.66,2.86C61.7,17.03,60.47,18.21,59.04,18.21L59.04,18.21z M71.72,11.68h-0.07
				c-0.46-0.55-1.36-1.06-2.48-1.06c-2.36,0-4.52,2.08-4.52,4.74c0,2.65,2.16,4.71,4.52,4.71c1.12,0,2.02-0.5,2.48-1.07h0.07v0.68
				c0,1.81-0.96,2.77-2.52,2.77c-1.27,0-2.05-0.91-2.38-1.68l-1.8,0.75c0.52,1.25,1.89,2.79,4.18,2.79c2.43,0,4.48-1.43,4.48-4.92
				v-8.48h-1.96V11.68L71.72,11.68z M69.34,18.21c-1.43,0-2.63-1.2-2.63-2.84c0-1.66,1.2-2.88,2.63-2.88c1.41,0,2.52,1.22,2.52,2.88
				C71.86,17.01,70.75,18.21,69.34,18.21L69.34,18.21z M48.72,10.62c-2.61,0-4.73,1.99-4.73,4.72c0,2.72,2.13,4.72,4.73,4.72
				c2.61,0,4.73-2,4.73-4.72C53.45,12.61,51.32,10.62,48.72,10.62L48.72,10.62z M48.72,18.21c-1.43,0-2.66-1.18-2.66-2.86
				c0-1.7,1.23-2.86,2.66-2.86c1.43,0,2.66,1.16,2.66,2.86C51.38,17.03,50.14,18.21,48.72,18.21L48.72,18.21z M36.43,12.07v2h4.79
				c-0.14,1.13-0.52,1.95-1.09,2.52c-0.7,0.7-1.79,1.47-3.7,1.47c-2.95,0-5.25-2.38-5.25-5.33c0-2.95,2.3-5.33,5.25-5.33
				c1.59,0,2.75,0.63,3.61,1.43l1.41-1.41c-1.2-1.14-2.79-2.02-5.02-2.02C32.39,5.4,29,8.69,29,12.73s3.39,7.33,7.43,7.33
				c2.18,0,3.82-0.72,5.11-2.06c1.32-1.32,1.73-3.18,1.73-4.69c0-0.47-0.04-0.89-0.11-1.25H36.43L36.43,12.07z M86.67,13.63
				c-0.39-1.06-1.59-3-4.04-3c-2.43,0-4.45,1.91-4.45,4.72c0,2.65,2,4.72,4.68,4.72c2.16,0,3.41-1.32,3.93-2.09l-1.61-1.07
				c-0.54,0.79-1.27,1.31-2.32,1.31s-1.8-0.48-2.29-1.43l6.31-2.61L86.67,13.63L86.67,13.63z M80.24,15.2
				c-0.05-1.83,1.41-2.75,2.46-2.75c0.82,0,1.52,0.41,1.75,1L80.24,15.2L80.24,15.2z M75.11,19.78h2.07V5.9h-2.07V19.78L75.11,19.78
				z M91,5.9v13.88h2.05v-5.26h2.86c2.27,0,4.5-1.66,4.5-4.31c0-2.65-2.23-4.31-4.5-4.31H91z M95.94,12.59H93V7.83h2.94
				c1.55,0,2.43,1.28,2.43,2.38C98.37,11.29,97.49,12.59,95.94,12.59L95.94,12.59z M102.06,19.78h2.07V5.9h-2.07V19.78L102.06,19.78
				z M109.22,10.6c-1.5,0-3.05,0.66-3.69,2.13l1.84,0.77c0.39-0.77,1.12-1.02,1.89-1.02c1.07,0,2.16,0.64,2.18,1.79v0.14
				c-0.37-0.21-1.18-0.54-2.16-0.54c-1.98,0-3.99,1.09-3.99,3.12c0,1.86,1.62,3.05,3.44,3.05c1.39,0,2.16-0.62,2.64-1.36h0.07v1.07
				h2v-5.32C113.42,11.97,111.59,10.6,109.22,10.6L109.22,10.6z M108.97,18.2c-0.68,0-1.62-0.34-1.62-1.18
				c0-1.07,1.18-1.48,2.19-1.48c0.91,0,1.34,0.2,1.89,0.46C111.27,17.29,110.16,18.2,108.97,18.2L108.97,18.2z M120.7,10.9
				l-2.37,6.02h-0.07l-2.46-6.02h-2.23l3.69,8.41l-2.1,4.68h2.16L123,10.9H120.7L120.7,10.9z" fill="#ffffffff"/>
			<g id="Group" transform="translate(0.000000, 0.870000)">

					<linearGradient id="Shape_8_" gradientUnits="userSpaceOnUse" x1="-306.0258" y1="307.2745" x2="-307.3241" y2="306.6051" gradientTransform="matrix(12.3433 0 0 -23.9713 3788.6589 7367.3984)">
					<stop  offset="0" style="stop-color:#00A0FF"/>
					<stop  offset="6.574452e-03" style="stop-color:#00A1FF"/>
					<stop  offset="0.2601" style="stop-color:#00BEFF"/>
					<stop  offset="0.5122" style="stop-color:#00D2FF"/>
					<stop  offset="0.7604" style="stop-color:#00DFFF"/>
					<stop  offset="1" style="stop-color:#00E3FF"/>
				</linearGradient>
				<path id="Shape_1_" class="st2" d="M0.44,0.52C0.16,0.81,0,1.27,0,1.86v21.15c0,0.59,0.16,1.05,0.44,1.34l0.07,0.07l11.83-11.84
					v-0.14V12.3L0.51,0.45L0.44,0.52L0.44,0.52z"/>

					<linearGradient id="Shape_9_" gradientUnits="userSpaceOnUse" x1="-298.5116" y1="284.0295" x2="-300.8922" y2="284.0295" gradientTransform="matrix(9.7058 0 0 -8.1791 2920.0725 2335.5349)">
					<stop  offset="0" style="stop-color:#FFE000"/>
					<stop  offset="0.4087" style="stop-color:#FFBD00"/>
					<stop  offset="0.7754" style="stop-color:#FFA500"/>
					<stop  offset="1" style="stop-color:#FF9C00"/>
				</linearGradient>
				<path id="Shape_2_" class="st3" d="M16.29,16.53l-3.94-3.95v-0.14V12.3l3.94-3.95l0.09,0.05l4.67,2.66c1.33,0.76,1.33,2,0,2.76
					l-4.67,2.66L16.29,16.53L16.29,16.53z"/>

					<linearGradient id="Shape_10_" gradientUnits="userSpaceOnUse" x1="-312.176" y1="295.9385" x2="-313.5399" y2="294.1689" gradientTransform="matrix(15.9339 0 0 -12.2974 4988.3779 3653.9004)">
					<stop  offset="0" style="stop-color:#FF3A44"/>
					<stop  offset="1" style="stop-color:#C31162"/>
				</linearGradient>
				<path id="Shape_3_" class="st4" d="M16.38,16.48l-4.03-4.04L0.44,24.35c0.44,0.47,1.17,0.52,1.98,0.06L16.38,16.48"/>

					<linearGradient id="Shape_11_" gradientUnits="userSpaceOnUse" x1="-313.2265" y1="296.6585" x2="-312.6175" y2="295.8683" gradientTransform="matrix(15.9339 0 0 -12.2974 4988.3779 3641.6025)">
					<stop  offset="0" style="stop-color:#32A071"/>
					<stop  offset="0.0685" style="stop-color:#2DA771"/>
					<stop  offset="0.4762" style="stop-color:#15CF74"/>
					<stop  offset="0.8009" style="stop-color:#06E775"/>
					<stop  offset="1" style="stop-color:#00F076"/>
				</linearGradient>
				<path id="Shape_4_" class="st5" d="M16.38,8.4L2.43,0.46C1.61,0,0.88,0.05,0.44,0.52l11.9,11.92L16.38,8.4L16.38,8.4z"/>
				<g id="Shape_5_" transform="translate(0.000000, 16.349758)">
					<path class="st6" d="M16.29,0.04L2.43,7.92C1.65,8.36,0.96,8.34,0.51,7.93l0,0L0.44,8l0,0l0.07,0.07l0,0
						c0.45,0.4,1.14,0.43,1.91-0.01l13.95-7.94L16.29,0.04L16.29,0.04z"/>
					<path class="st7" d="M0.44,7.86C0.16,7.57,0,7.11,0,6.52v0.14C0,7.25,0.16,7.71,0.44,8l0.07-0.07L0.44,7.86L0.44,7.86z"/>
				</g>
				<path id="Shape_6_" class="st7" d="M21.05,13.68l-4.76,2.71l0.09,0.09l4.67-2.66c0.67-0.38,1-0.88,1-1.38l0,0
					C21.99,12.89,21.65,13.33,21.05,13.68L21.05,13.68z"/>
				<path id="Shape_7_" class="st8" d="M2.43,0.6l18.62,10.6c0.61,0.34,0.94,0.79,1,1.24l0,0c0-0.5-0.33-1-1-1.38L2.43,0.46
					C1.09-0.3,0,0.33,0,1.86V2C0,0.47,1.09-0.16,2.43,0.6L2.43,0.6z"/>
			</g>
		</g>
	</g>
</g>
</svg>
