<?xml version="1.0" encoding="UTF-8" standalone="no"?>
<svg
   xmlns:dc="http://purl.org/dc/elements/1.1/"
   xmlns:cc="http://creativecommons.org/ns#"
   xmlns:rdf="http://www.w3.org/1999/02/22-rdf-syntax-ns#"
   xmlns:svg="http://www.w3.org/2000/svg"
   xmlns="http://www.w3.org/2000/svg"
   xmlns:sodipodi="http://sodipodi.sourceforge.net/DTD/sodipodi-0.dtd"
   xmlns:inkscape="http://www.inkscape.org/namespaces/inkscape"
   width="145px"
   height="30px"
   viewBox="0 0 145 30"
   version="1.1"
   id="svg2"
   inkscape:version="0.91 r13725"
   sodipodi:docname="largescreens_logo_lockup.svg">
  <metadata
     id="metadata76">
    <rdf:RDF>
      <cc:Work
         rdf:about="">
        <dc:format>image/svg+xml</dc:format>
        <dc:type
           rdf:resource="http://purl.org/dc/dcmitype/StillImage" />
      </cc:Work>
    </rdf:RDF>
  </metadata>
  <sodipodi:namedview
     pagecolor="#ffffff"
     bordercolor="#666666"
     borderopacity="1"
     objecttolerance="10"
     gridtolerance="10"
     guidetolerance="10"
     inkscape:pageopacity="0"
     inkscape:pageshadow="2"
     inkscape:window-width="1920"
     inkscape:window-height="1026"
     id="namedview74"
     showgrid="false"
     inkscape:zoom="3.4344828"
     inkscape:cx="73.664659"
     inkscape:cy="15"
     inkscape:window-x="0"
     inkscape:window-y="0"
     inkscape:window-maximized="1"
     inkscape:current-layer="svg2" />
  <!-- Generator: Sketch 54.1 (76490) - https://sketchapp.com -->
  <title
     id="title4">play-logo-horizontal</title>
  <desc
     id="desc6">Created with Sketch.</desc>
  <defs
     id="defs8">
    <linearGradient
       x1="60.9322422%"
       y1="4.95488722%"
       x2="26.6328652%"
       y2="72.093985%"
       id="linearGradient-1">
      <stop
         stop-color="#00A0FF"
         offset="0%"
         id="stop11" />
      <stop
         stop-color="#00A1FF"
         offset="0.6574452%"
         id="stop13" />
      <stop
         stop-color="#00BEFF"
         offset="26.01%"
         id="stop15" />
      <stop
         stop-color="#00D2FF"
         offset="51.22%"
         id="stop17" />
      <stop
         stop-color="#00DFFF"
         offset="76.04%"
         id="stop19" />
      <stop
         stop-color="#00E3FF"
         offset="100%"
         id="stop21" />
    </linearGradient>
    <linearGradient
       x1="108.036533%"
       y1="50.0088235%"
       x2="-131.119505%"
       y2="50.0088235%"
       id="linearGradient-2">
      <stop
         stop-color="#FFE000"
         offset="0%"
         id="stop24" />
      <stop
         stop-color="#FFBD00"
         offset="40.87%"
         id="stop26" />
      <stop
         stop-color="#FFA500"
         offset="77.54%"
         id="stop28" />
      <stop
         stop-color="#FF9C00"
         offset="100%"
         id="stop30" />
    </linearGradient>
    <linearGradient
       x1="86.3541353%"
       y1="30.5891217%"
       x2="-50.2146617%"
       y2="137.228072%"
       id="linearGradient-3">
      <stop
         stop-color="#FF3A44"
         offset="0%"
         id="stop33" />
      <stop
         stop-color="#C31162"
         offset="100%"
         id="stop35" />
    </linearGradient>
    <linearGradient
       x1="-18.8379699%"
       y1="-12.7278327%"
       x2="42.1454887%"
       y2="34.8906152%"
       id="linearGradient-4">
      <stop
         stop-color="#32A071"
         offset="0%"
         id="stop38" />
      <stop
         stop-color="#2DA771"
         offset="6.85%"
         id="stop40" />
      <stop
         stop-color="#15CF74"
         offset="47.62%"
         id="stop42" />
      <stop
         stop-color="#06E775"
         offset="80.09%"
         id="stop44" />
      <stop
         stop-color="#00F076"
         offset="100%"
         id="stop46" />
    </linearGradient>
  </defs>
  <g
     id="Specs"
     stroke-width="1"
     stroke="none"
     fill-rule="evenodd"
     fill="none">
    <g
       id="Side-Navigation---Static"
       transform="translate(-65.000000, -66.000000)"
       fill-rule="nonzero">
      <g
         id="Group-10"
         transform="translate(-0.000000, 40.000000)">
        <g
           id="Appbar-/-product-icon-/-large">
          <g
             id="play-logo-horizontal"
             transform="translate(48.000000, 8.000000)">
            <polygon
               id="Rectangle-path"
               points="2.27373675e-13 0 178 0 178 64 2.27373675e-13 64"
               fill-opacity="0"
               fill="#000000" />
            <path
               d="M86.4465649,29.4371069 C83.3396947,29.4371069 80.8683206,31.8238994 80.8683206,35.1509434 C80.8683206,38.4056604 83.4103053,40.8647799 86.4465649,40.8647799 C89.5534351,40.8647799 92.0248092,38.4779874 92.0248092,35.1509434 C92.0248092,31.8238994 89.5534351,29.4371069 86.4465649,29.4371069 Z M86.4465649,38.6226415 C84.7519084,38.6226415 83.3396947,37.1761006 83.3396947,35.1509434 C83.3396947,33.1257862 84.8225191,31.6792453 86.4465649,31.6792453 C88.0706107,31.6792453 89.5534351,33.0534591 89.5534351,35.1509434 C89.6240458,37.1761006 88.1412214,38.6226415 86.4465649,38.6226415 Z M101.416031,30.7389937 L101.34542,30.7389937 C100.780534,30.0880503 99.721374,29.4371069 98.4503817,29.4371069 C95.6965649,29.4371069 93.0839695,31.9685535 93.0839695,35.1509434 C93.0839695,38.3333333 95.6259542,40.8647799 98.4503817,40.8647799 C99.7919847,40.8647799 100.851145,40.2861635 101.34542,39.5628931 L101.416031,39.5628931 L101.416031,40.3584906 C101.416031,42.5283019 100.28626,43.6855346 98.4503817,43.6855346 C96.9675573,43.6855346 96.0496183,42.6006289 95.6259542,41.6603774 L93.5076336,42.6006289 C94.1431298,44.1194969 95.7671756,46 98.4503817,46 C101.34542,46 103.746183,44.2641509 103.746183,40.0691824 L103.746183,29.7987421 L101.416031,29.7987421 L101.416031,30.7389937 Z M98.5916031,38.6226415 C96.8969466,38.6226415 95.4847328,37.1761006 95.4847328,35.2232704 C95.4847328,33.1981132 96.8969466,31.7515723 98.5916031,31.7515723 C100.28626,31.7515723 101.557252,33.1981132 101.557252,35.2232704 C101.627863,37.1761006 100.28626,38.6226415 98.5916031,38.6226415 Z M74.3015267,29.4371069 C71.1946565,29.4371069 68.7232824,31.8238994 68.7232824,35.1509434 C68.7232824,38.4056604 71.2652672,40.8647799 74.3015267,40.8647799 C77.4083969,40.8647799 79.879771,38.4779874 79.879771,35.1509434 C79.879771,31.8238994 77.3377863,29.4371069 74.3015267,29.4371069 Z M74.3015267,38.6226415 C72.6068702,38.6226415 71.1946565,37.1761006 71.1946565,35.1509434 C71.1946565,33.1257862 72.6774809,31.6792453 74.3015267,31.6792453 C75.9255725,31.6792453 77.4083969,33.0534591 77.4083969,35.1509434 C77.4083969,37.1761006 75.9961832,38.6226415 74.3015267,38.6226415 Z M59.7557252,31.172956 L59.7557252,33.5597484 L65.4045802,33.5597484 C65.2633588,34.9339623 64.769084,35.9465409 64.1335878,36.5974843 C63.2862595,37.4654088 62.0152672,38.3333333 59.7557252,38.3333333 C56.2958015,38.3333333 53.5419847,35.4402516 53.5419847,31.8962264 C53.5419847,28.3522013 56.2958015,25.4591195 59.7557252,25.4591195 C61.6622137,25.4591195 63.0038168,26.1823899 63.9923664,27.1949686 L65.6870229,25.4591195 C64.2748092,24.0849057 62.3683206,23 59.7557252,23 C55.0248092,23 51,26.9779874 51,31.8238994 C51,36.6698113 55.0248092,40.6477987 59.7557252,40.6477987 C62.2977099,40.6477987 64.2748092,39.7798742 65.7576336,38.1886792 C67.3110687,36.5974843 67.8053435,34.3553459 67.8053435,32.5471698 C67.8053435,31.9685535 67.7347328,31.4622642 67.6641221,31.0283019 L59.7557252,31.0283019 L59.7557252,31.172956 Z M119.068702,33.0534591 C118.574427,31.7515723 117.162214,29.4371069 114.337786,29.4371069 C111.442748,29.4371069 109.112595,31.7515723 109.112595,35.1509434 C109.112595,38.3333333 111.442748,40.8647799 114.620229,40.8647799 C117.162214,40.8647799 118.645038,39.2735849 119.280534,38.3333333 L117.374046,37.0314465 C116.73855,37.9716981 115.891221,38.6226415 114.620229,38.6226415 C113.349237,38.6226415 112.501908,38.0440252 111.937023,36.8867925 L119.351145,33.7044025 L119.068702,33.0534591 Z M111.513359,35.0062893 C111.442748,32.836478 113.208015,31.6792453 114.408397,31.6792453 C115.396947,31.6792453 116.173664,32.1855346 116.456107,32.908805 L111.513359,35.0062893 Z M105.44084,40.5031447 L107.912214,40.5031447 L107.912214,23.7232704 L105.44084,23.7232704 L105.44084,40.5031447 Z M130.507634,23.7232704 L124.646947,23.7232704 L124.646947,40.5031447 L127.118321,40.5031447 L127.118321,34.1383648 L130.507634,34.1383648 C133.19084,34.1383648 135.874046,32.1132075 135.874046,28.9308176 C135.874046,25.7484277 133.26145,23.7232704 130.507634,23.7232704 Z M130.578244,31.8238994 L127.118321,31.8238994 L127.118321,26.1100629 L130.578244,26.1100629 C132.414122,26.1100629 133.473282,27.6289308 133.473282,29.0031447 C133.473282,30.2327044 132.414122,31.8238994 130.578244,31.8238994 Z M137.215649,40.5031447 L139.687023,40.5031447 L139.687023,23.7232704 L137.215649,23.7232704 L137.215649,40.5031447 Z M145.688931,29.4371069 C143.923664,29.4371069 142.087786,30.2327044 141.311069,31.9685535 L143.5,32.908805 C143.994275,31.9685535 144.841603,31.6792453 145.759542,31.6792453 C147.030534,31.6792453 148.301527,32.4748428 148.301527,33.8490566 L148.301527,33.9937107 C147.877863,33.7044025 146.889313,33.3427673 145.759542,33.3427673 C143.429389,33.3427673 141.028626,34.6446541 141.028626,37.1037736 C141.028626,39.3459119 142.935115,40.7924528 145.124046,40.7924528 C146.748092,40.7924528 147.666031,40.0691824 148.230916,39.1289308 L148.301527,39.1289308 L148.301527,40.4308176 L150.631679,40.4308176 L150.631679,33.9937107 C150.631679,31.1006289 148.513359,29.4371069 145.688931,29.4371069 Z M145.406489,38.6226415 C144.629771,38.6226415 143.5,38.1886792 143.5,37.1761006 C143.5,35.8742138 144.912214,35.3679245 146.112595,35.3679245 C147.171756,35.3679245 147.666031,35.5849057 148.372137,35.9465409 C148.089695,37.4654088 146.818702,38.6226415 145.406489,38.6226415 Z M159.246183,29.7987421 L156.421756,37.0314465 L156.351145,37.0314465 L153.456107,29.7987421 L150.843511,29.7987421 L155.221374,39.9245283 L152.75,45.5660377 L155.291985,45.5660377 L162,29.7264151 L159.246183,29.7264151 L159.246183,29.7987421 Z"
               id="Shape"
               fill="#000000"
               opacity="0.54"
               style="fill:#ffffff" />
            <g
               id="Group"
               transform="translate(17.000000, 18.000000)">
              <path
                 d="M0.781578947,0.785714286 C0.426315789,1.14285714 0.284210526,1.71428571 0.284210526,2.35714286 L0.284210526,27.5714286 C0.284210526,28.2857143 0.497368421,28.8571429 0.781578947,29.1428571 L0.852631579,29.2142857 L14.9210526,15.1428571 L14.9210526,15 L14.9210526,14.8571429 L0.852631579,0.714285714 L0.781578947,0.785714286 Z"
                 id="path56"
                 fill="url(#linearGradient-1)" />
              <path
                 d="M19.6105263,19.8571429 L14.9210526,15.1428571 L14.9210526,15 L14.9210526,14.8571429 L19.6105263,10.1428571 L19.6815789,10.2142857 L25.2236842,13.3571429 C26.7868421,14.2857143 26.7868421,15.7142857 25.2236842,16.6428571 L19.6815789,19.7857143 L19.6105263,19.8571429 Z"
                 id="path58"
                 fill="url(#linearGradient-2)" />
              <path
                 d="M19.6815789,19.7857143 L14.9210526,15 L0.781578947,29.2142857 C1.27894737,29.7857143 2.20263158,29.8571429 3.12631579,29.2857143 L19.6815789,19.7857143"
                 id="path60"
                 fill="url(#linearGradient-3)" />
              <path
                 d="M19.6815789,10.2142857 L3.12631579,0.714285714 C2.13157895,0.142857143 1.27894737,0.214285714 0.781578947,0.785714286 L14.9210526,15 L19.6815789,10.2142857 Z"
                 id="path62"
                 fill="url(#linearGradient-4)" />
              <g
                 transform="translate(0.000000, 19.285714)"
                 id="g64"
                 fill="#000000">
                <path
                   d="M19.6105263,0.428571429 L3.12631579,9.85714286 C2.20263158,10.3571429 1.35,10.3571429 0.852631579,9.85714286 L0.852631579,9.85714286 L0.781578947,9.92857143 L0.781578947,9.92857143 L0.852631579,10 L0.852631579,10 C1.35,10.5 2.20263158,10.5 3.12631579,10 L19.6815789,0.571428571 L19.6105263,0.428571429 Z"
                   id="path66"
                   opacity="0.2" />
                <path
                   d="M0.781578947,9.78571429 C0.426315789,9.42857143 0.284210526,8.85714286 0.284210526,8.21428571 L0.284210526,8.35714286 C0.284210526,9.07142857 0.497368421,9.64285714 0.781578947,9.92857143 L0.852631579,9.85714286 L0.781578947,9.78571429 Z"
                   id="path68"
                   opacity="0.12" />
              </g>
              <path
                 d="M25.2236842,16.5 L19.5394737,19.7142857 L19.6105263,19.7857143 L25.1526316,16.6428571 C25.9342105,16.2142857 26.3605263,15.5714286 26.3605263,15 L26.3605263,15 C26.3605263,15.5714286 26.0052632,16.0714286 25.2236842,16.5 Z"
                 id="path70"
                 fill="#000000"
                 opacity="0.12" />
              <path
                 d="M3.12631579,0.857142857 L25.2236842,13.5 C25.9342105,13.9285714 26.3605263,14.4285714 26.4315789,15 L26.4315789,15 C26.4315789,14.4285714 26.0052632,13.7857143 25.2236842,13.3571429 L3.12631579,0.714285714 C1.56315789,-0.214285714 0.213157895,0.571428571 0.213157895,2.35714286 L0.213157895,2.5 C0.284210526,0.714285714 1.56315789,6.49480469e-15 3.12631579,0.857142857 Z"
                 id="path72"
                 fill="#FFFFFF"
                 opacity="0.25" />
            </g>
          </g>
        </g>
      </g>
    </g>
  </g>
</svg>
