<?xml version="1.0" encoding="UTF-8" standalone="no"?>
<svg
   xmlns:dc="http://purl.org/dc/elements/1.1/"
   xmlns:cc="http://creativecommons.org/ns#"
   xmlns:rdf="http://www.w3.org/1999/02/22-rdf-syntax-ns#"
   xmlns:svg="http://www.w3.org/2000/svg"
   xmlns="http://www.w3.org/2000/svg"
   xmlns:sodipodi="http://sodipodi.sourceforge.net/DTD/sodipodi-0.dtd"
   xmlns:inkscape="http://www.inkscape.org/namespaces/inkscape"
   width="154px"
   height="24px"
   viewBox="0 0 154 24"
   version="1.1"
   id="svg3780"
   inkscape:version="0.91 r13725"
   sodipodi:docname="play_store_154px.svg">
  <metadata
     id="metadata3809">
    <rdf:RDF>
      <cc:Work
         rdf:about="">
        <dc:format>image/svg+xml</dc:format>
        <dc:type
           rdf:resource="http://purl.org/dc/dcmitype/StillImage" />
        <dc:title>play_store_154px</dc:title>
      </cc:Work>
    </rdf:RDF>
  </metadata>
  <sodipodi:namedview
     pagecolor="#ffffff"
     bordercolor="#666666"
     borderopacity="1"
     objecttolerance="10"
     gridtolerance="10"
     guidetolerance="10"
     inkscape:pageopacity="0"
     inkscape:pageshadow="2"
     inkscape:window-width="1920"
     inkscape:window-height="1026"
     id="namedview3807"
     showgrid="false"
     inkscape:zoom="9.2467532"
     inkscape:cx="77"
     inkscape:cy="12"
     inkscape:window-x="0"
     inkscape:window-y="0"
     inkscape:window-maximized="1"
     inkscape:current-layer="svg3780" />
  <!-- Generator: Sketch 3.8.2 (29753) - http://www.bohemiancoding.com/sketch -->
  <title
     id="title3782">play_store_154px</title>
  <desc
     id="desc3784">Created with Sketch.</desc>
  <defs
     id="defs3786" />
  <g
     id="Page-1"
     stroke="none"
     stroke-width="1"
     fill="none"
     fill-rule="evenodd"
     style="fill:#ffffff">
    <g
       id="play_store_154px"
       fill="#000000"
       style="fill:#ffffff">
      <g
         id="g3790"
         style="fill:#ffffff">
        <g
           id="d20_apps_360dp-copy-12"
           style="fill:#ffffff">
          <g
             id="action_bar"
             style="fill:#ffffff">
            <g
               id="play_store"
               transform="translate(0, 3)"
               style="fill:#ffffff">
              <g
                 id="Group"
                 style="fill:#ffffff">
                <g
                   id="Store"
                   transform="translate(108.925241, 1.415179)"
                   style="fill:#ffffff">
                  <path
                     d="M4.97083601,14.7934152 C3.93757235,14.7934152 2.92913183,14.4576563 1.94241158,13.7876786 C0.955691318,13.1177009 0.310289389,12.178192 0.00620578778,10.9691518 L1.67401125,10.2991741 C1.87259646,11.0754241 2.27907556,11.7284598 2.895,12.2613616 C3.51092444,12.7942634 4.20286977,13.0591741 4.97083601,13.0591741 C5.76517685,13.0591741 6.44315916,12.8527902 7.00633441,12.4384821 C7.56950965,12.0241741 7.85032154,11.4620089 7.85032154,10.7535268 C7.85032154,9.96495536 7.56950965,9.35658482 7.00633441,8.92995536 C6.44315916,8.50332589 5.55262862,8.10595982 4.33474277,7.73785714 C3.07651929,7.34357143 2.12393087,6.83377232 1.47542605,6.21 C0.826921222,5.58622768 0.50266881,4.786875 0.50266881,3.81502232 C0.50266881,2.803125 0.906045016,1.92214286 1.71434887,1.17361607 C2.52110129,0.425089286 3.57453376,0.0492857143 4.87154341,0.0492857143 C6.07546624,0.0492857143 7.05598071,0.348080357 7.80998392,0.945669643 C8.56398714,1.54325893 9.05424437,2.19783482 9.27920418,2.90785714 L7.61139871,3.59785714 C7.4919373,3.15120536 7.19716238,2.73689732 6.72707395,2.35647321 C6.25698553,1.97604911 5.65192122,1.78506696 4.91032958,1.78506696 C4.20907556,1.78506696 3.61021704,1.97912946 3.11375402,2.36725446 C2.617291,2.75537946 2.36905949,3.23745536 2.36905949,3.8165625 C2.36905949,4.34176339 2.59712219,4.78533482 3.05479904,5.14727679 C3.51092444,5.50921875 4.18270096,5.83419643 5.07012862,6.12375 C5.77138264,6.34707589 6.35782958,6.56424107 6.82791801,6.77370536 C7.29800643,6.98470982 7.77430064,7.26348214 8.25835209,7.6115625 C8.74085209,7.95964286 9.10544212,8.39397321 9.35057074,8.91301339 C9.59569936,9.43205357 9.71826367,10.0342634 9.71826367,10.7165625 C9.71826367,11.4004018 9.57553055,12.0118527 9.29161576,12.549375 C9.00614952,13.0884375 8.62914791,13.515067 8.15905949,13.8308036 C7.68897106,14.1465402 7.18319936,14.386808 6.64019293,14.550067 C6.09563505,14.7102455 5.54021704,14.7934152 4.97083601,14.7934152 L4.97083601,14.7934152 L4.97083601,14.7934152 Z"
                     id="Shape"
                     style="fill:#ffffff" />
                  <path
                     d="M15.2367605,14.6347768 C14.2174598,14.6347768 13.4401849,14.3652455 12.9033842,13.826183 C12.3665836,13.2871205 12.0997347,12.5247321 12.0997347,11.5390179 L12.0997347,6.47183036 L10.3915916,6.47183036 L10.3915916,4.81613839 L12.0997347,4.81613839 L12.0997347,1.85899554 L13.9273392,1.85899554 L13.9273392,4.81613839 L16.3103617,4.81613839 L16.3103617,6.47183036 L13.9273392,6.47183036 L13.9273392,11.4004018 C13.9273392,12.4523438 14.3648473,12.9775446 15.2383119,12.9775446 C15.5687701,12.9775446 15.8464791,12.9251786 16.0729904,12.8204464 L16.7090836,14.377567 C16.3088103,14.550067 15.8201045,14.6347768 15.2367605,14.6347768 L15.2367605,14.6347768 L15.2367605,14.6347768 Z"
                     id="path3798"
                     style="fill:#ffffff" />
                  <path
                     d="M18.612709,5.97127232 C19.5528859,4.99171875 20.7506029,4.50194196 22.2074116,4.50194196 C23.6642203,4.50194196 24.8619373,4.99171875 25.8021141,5.97127232 C26.742291,6.95082589 27.2123794,8.17680804 27.2123794,9.64767857 C27.2123794,11.1200893 26.742291,12.3460714 25.8021141,13.3240848 C24.8619373,14.3036384 23.6642203,14.7934152 22.2074116,14.7934152 C20.7506029,14.7934152 19.5528859,14.3036384 18.612709,13.3240848 C17.6725322,12.3445313 17.2024437,11.1200893 17.2024437,9.64767857 C17.2024437,8.17526786 17.6725322,6.95082589 18.612709,5.97127232 L18.612709,5.97127232 L18.612709,5.97127232 Z M19.973328,12.1812723 C20.601664,12.8189063 21.3463585,13.1377232 22.2074116,13.1377232 C23.0684646,13.1377232 23.8131592,12.8189063 24.4414952,12.1812723 C25.0698312,11.5436384 25.3847749,10.6996205 25.3847749,9.64767857 C25.3847749,8.59573661 25.0698312,7.75171875 24.4414952,7.11408482 C23.8131592,6.47645089 23.0684646,6.15763393 22.2074116,6.15763393 C21.3463585,6.15763393 20.601664,6.47645089 19.973328,7.11408482 C19.344992,7.75171875 19.0300482,8.59573661 19.0300482,9.64767857 C19.0300482,10.6996205 19.344992,11.5436384 19.973328,12.1812723 L19.973328,12.1812723 L19.973328,12.1812723 Z"
                     id="path3800"
                     style="fill:#ffffff" />
                  <path
                     d="M30.5076527,14.4776786 L28.6800482,14.4776786 L28.6800482,4.81767857 L30.4269775,4.81767857 L30.4269775,6.39482143 L30.5061013,6.39482143 C30.6907235,5.86962054 31.0723794,5.43529018 31.6479662,5.09337054 C32.2235531,4.75145089 32.7836254,4.58049107 33.3266318,4.58049107 C33.8696383,4.58049107 34.3257637,4.65904018 34.6965595,4.81767857 L34.0015113,6.51341518 C33.7625884,6.42100446 33.438336,6.37479911 33.028754,6.37479911 C32.3662862,6.37479911 31.7813907,6.63508929 31.2709646,7.15412946 C30.7605386,7.67316964 30.5061013,8.35392857 30.5061013,9.19486607 L30.5061013,14.4776786 L30.5076527,14.4776786 L30.5076527,14.4776786 Z"
                     id="path3802"
                     style="fill:#ffffff" />
                  <path
                     d="M40.1002492,14.7934152 C38.6310289,14.7934152 37.4364148,14.3067188 36.5164068,13.3348661 C35.5963987,12.3630134 35.135619,11.1339509 35.135619,9.64767857 C35.135619,8.24149554 35.5824357,7.03245536 36.4760691,6.02055804 C37.3697026,5.00866071 38.5115675,4.50194196 39.901664,4.50194196 C41.3445096,4.50194196 42.5003376,4.96861607 43.3675965,5.90196429 C44.2348553,6.8353125 44.667709,8.08439732 44.667709,9.64767857 L44.6475402,9.9834375 L36.961672,9.9834375 C37.0144212,10.9568304 37.3417765,11.7253795 37.9452894,12.290625 C38.5472508,12.8558705 39.2531592,13.1377232 40.0599116,13.1377232 C41.3708842,13.1377232 42.2567605,12.5863393 42.7206431,11.4820313 L44.3496624,12.1520089 C44.0316158,12.9005357 43.5087781,13.5289286 42.7811495,14.0341071 C42.0519695,14.5392857 41.158336,14.7934152 40.1002492,14.7934152 L40.1002492,14.7934152 L40.1002492,14.7934152 Z M42.7206431,8.48484375 C42.6803055,7.93345982 42.4258682,7.40671875 41.9557797,6.90770089 C41.4856913,6.40868304 40.7875402,6.15917411 39.8613264,6.15917411 C39.1864469,6.15917411 38.6,6.37017857 38.103537,6.79064732 C37.607074,7.21111607 37.2657556,7.77636161 37.0811334,8.48638393 L42.7206431,8.48638393 L42.7206431,8.48484375 L42.7206431,8.48484375 Z"
                     id="path3804"
                     style="fill:#ffffff" />
                </g>
                <path
                   d="M33.4814791,5.79852679 C30.5818248,5.79852679 28.2189711,7.98712054 28.2189711,11.0027902 C28.2189711,13.9999777 30.5818248,16.2070536 33.4814791,16.2070536 C36.3811334,16.2070536 38.7439871,13.9984375 38.7439871,11.0027902 C38.7439871,7.98712054 36.3811334,5.79852679 33.4814791,5.79852679 L33.4814791,5.79852679 L33.4814791,5.79852679 Z M33.4814791,14.1586161 C31.8927974,14.1586161 30.5228698,12.8571652 30.5228698,11.0043304 C30.5228698,9.13147321 31.8927974,7.85004464 33.4814791,7.85004464 C35.0701608,7.85004464 36.4400884,9.13147321 36.4400884,11.0043304 C36.4400884,12.8571652 35.0701608,14.1586161 33.4814791,14.1586161 L33.4814791,14.1586161 L33.4814791,14.1586161 Z M22.0007717,5.79852679 C19.1011174,5.79852679 16.7382637,7.98712054 16.7382637,11.0027902 C16.7382637,13.9999777 19.1011174,16.2070536 22.0007717,16.2070536 C24.900426,16.2070536 27.2632797,13.9984375 27.2632797,11.0027902 C27.2632797,7.98712054 24.900426,5.79852679 22.0007717,5.79852679 L22.0007717,5.79852679 L22.0007717,5.79852679 Z M22.0007717,14.1586161 C20.41209,14.1586161 19.0421624,12.8571652 19.0421624,11.0043304 C19.0421624,9.13147321 20.41209,7.85004464 22.0007717,7.85004464 C23.5894534,7.85004464 24.959381,9.13147321 24.959381,11.0043304 C24.9609325,12.8571652 23.5894534,14.1586161 22.0007717,14.1586161 L22.0007717,14.1586161 L22.0007717,14.1586161 Z M8.34493569,7.39569196 L8.34493569,9.60430804 L13.6663987,9.60430804 C13.5081511,10.845692 13.0908119,11.7528571 12.4547186,12.3843304 C11.6805466,13.1528795 10.4688666,14.0015179 8.34338424,14.0015179 C5.0667283,14.0015179 2.50528939,11.3801339 2.50528939,8.12573661 C2.50528939,4.87287946 5.0667283,2.24995536 8.34338424,2.24995536 C10.1104823,2.24995536 11.4012862,2.93995536 12.355426,3.82709821 L13.9239389,2.26997768 C12.5927974,1.00857143 10.8256994,0.0428794643 8.34338424,0.0428794643 C3.85504823,0.0428794643 0.0819292605,3.67 0.0819292605,8.12573661 C0.0819292605,12.5814732 3.85504823,16.2085938 8.34338424,16.2085938 C10.7667444,16.2085938 12.5927974,15.4200223 14.0232315,13.9414509 C15.4924518,12.4829018 15.9501286,10.4313839 15.9501286,8.77569196 C15.9501286,8.2628125 15.909791,7.78997768 15.8306672,7.39569196 L8.34493569,7.39569196 L8.34493569,7.39569196 L8.34493569,7.39569196 Z M64.1954743,9.11145089 C63.7579662,7.94861607 62.4283762,5.80006696 59.7071383,5.80006696 C57.0060691,5.80006696 54.7626768,7.91011161 54.7626768,11.0043304 C54.7626768,13.9214286 56.9874518,16.2085938 59.9662299,16.2085938 C62.3694212,16.2085938 63.7595177,14.7500446 64.3351045,13.9014063 L62.5478376,12.7185491 C61.952082,13.5856696 61.1375723,14.1570759 59.9662299,14.1570759 C58.7948875,14.1570759 57.960209,13.6241741 57.4249598,12.579933 L64.4359486,9.70133929 L64.1954743,9.11145089 L64.1954743,9.11145089 L64.1954743,9.11145089 Z M57.0464068,10.845692 C56.9874518,8.83421875 58.6149196,7.81 59.7862621,7.81 C60.7000643,7.81 61.4742363,8.2628125 61.7317765,8.91430804 L57.0464068,10.845692 L57.0464068,10.845692 L57.0464068,10.845692 Z M51.3463907,15.8928571 L53.6502894,15.8928571 L53.6502894,0.594263393 L51.3463907,0.594263393 L51.3463907,15.8928571 L51.3463907,15.8928571 L51.3463907,15.8928571 Z M47.5732717,6.96136161 L47.4941479,6.96136161 C46.9775161,6.34991071 45.98459,5.79852679 44.7341238,5.79852679 C42.1121785,5.79852679 39.7089871,8.08569196 39.7089871,11.0228125 C39.7089871,13.9414509 42.1121785,16.2085938 44.7341238,16.2085938 C45.98459,16.2085938 46.9775161,15.6572098 47.4941479,15.0257366 L47.5732717,15.0257366 L47.5732717,15.7742634 C47.5732717,17.7657143 46.5012219,18.8299777 44.77291,18.8299777 C43.3626447,18.8299777 42.4891801,17.8242411 42.1323473,16.9771429 L40.1263264,17.8057589 C40.7019132,19.1857589 42.2316399,20.8814955 44.77291,20.8814955 C47.4739791,20.8814955 49.757709,19.3043527 49.757709,15.460067 L49.757709,6.11426339 L47.5732717,6.11426339 L47.5732717,6.96136161 L47.5732717,6.96136161 L47.5732717,6.96136161 Z M44.932709,14.1586161 C43.3440273,14.1586161 42.0128859,12.8371429 42.0128859,11.0243527 C42.0128859,9.19154018 43.3440273,7.85004464 44.932709,7.85004464 C46.5012219,7.85004464 47.7330707,9.19 47.7330707,11.0243527 C47.7330707,12.8371429 46.5012219,14.1586161 44.932709,14.1586161 L44.932709,14.1586161 L44.932709,14.1586161 Z M74.9873392,0.594263393 L69.4750482,0.594263393 L69.4750482,15.8928571 L71.7742926,15.8928571 L71.7742926,10.0971652 L74.9857878,10.0971652 C77.5348151,10.0971652 80.0419534,8.26435268 80.0419534,5.34571429 C80.0419534,2.42707589 77.5363666,0.594263393 74.9873392,0.594263393 L74.9873392,0.594263393 L74.9873392,0.594263393 Z M75.0462942,7.96709821 L71.7742926,7.96709821 L71.7742926,2.72279018 L75.0462942,2.72279018 C76.7652974,2.72279018 77.742709,4.13667411 77.742709,5.34417411 C77.742709,6.53165179 76.7668489,7.96709821 75.0462942,7.96709821 L75.0462942,7.96709821 L75.0462942,7.96709821 Z M89.2622026,5.77080357 C87.5975,5.77080357 85.872291,6.49930804 85.1586254,8.11341518 L87.2003296,8.95897321 C87.6362862,8.11341518 88.4492444,7.83772321 89.3025402,7.83772321 C90.4925,7.83772321 91.7010772,8.54620536 91.721246,9.80607143 L91.721246,9.96316964 C91.3054582,9.72752232 90.4133762,9.37328125 89.322709,9.37328125 C87.1227572,9.37328125 84.8824678,10.5746205 84.8824678,12.8171205 C84.8824678,14.8640179 86.6868006,16.1824107 88.708336,16.1824107 C90.2551286,16.1824107 91.106873,15.4939509 91.6421222,14.6868973 L91.721246,14.6868973 L91.721246,15.8682143 L93.9413666,15.8682143 L93.9413666,10.0032143 C93.9398151,7.28633929 91.8981109,5.77080357 89.2622026,5.77080357 L89.2622026,5.77080357 L89.2622026,5.77080357 Z M88.9844936,14.1555357 C88.2304904,14.1555357 87.1801608,13.7812723 87.1801608,12.8571652 C87.1801608,11.6758482 88.4880305,11.2230357 89.6190354,11.2230357 C90.6305788,11.2230357 91.1053215,11.4402009 91.721246,11.734375 C91.5412781,13.1513393 90.3125322,14.1555357 88.9844936,14.1555357 L88.9844936,14.1555357 L88.9844936,14.1555357 Z M102.029059,6.10502232 L99.3915997,12.7385714 L99.3124759,12.7385714 L96.5772749,6.10502232 L94.0996141,6.10502232 L98.2031913,15.3753571 L95.8636093,20.531875 L98.2621463,20.531875 L104.585844,6.10502232 L102.029059,6.10502232 L102.029059,6.10502232 L102.029059,6.10502232 Z M81.311037,15.8928571 L83.6102814,15.8928571 L83.6102814,0.594263393 L81.311037,0.594263393 L81.311037,15.8928571 L81.311037,15.8928571 L81.311037,15.8928571 Z"
                   id="Google-Play"
                   style="fill:#ffffff" />
              </g>
            </g>
          </g>
        </g>
      </g>
    </g>
  </g>
</svg>
