<?xml version="1.0" encoding="UTF-8" standalone="no"?>
<svg
   xmlns:dc="http://purl.org/dc/elements/1.1/"
   xmlns:cc="http://creativecommons.org/ns#"
   xmlns:rdf="http://www.w3.org/1999/02/22-rdf-syntax-ns#"
   xmlns:svg="http://www.w3.org/2000/svg"
   xmlns="http://www.w3.org/2000/svg"
   xmlns:sodipodi="http://sodipodi.sourceforge.net/DTD/sodipodi-0.dtd"
   xmlns:inkscape="http://www.inkscape.org/namespaces/inkscape"
   width="24px"
   height="24px"
   viewBox="0 0 24 24"
   id="svg3867"
   version="1.1"
   inkscape:version="0.91 r13725"
   sodipodi:docname="ic_games_24px.svg">
  <metadata
     id="metadata3877">
    <rdf:RDF>
      <cc:Work
         rdf:about="">
        <dc:format>image/svg+xml</dc:format>
        <dc:type
           rdf:resource="http://purl.org/dc/dcmitype/StillImage" />
        <dc:title></dc:title>
      </cc:Work>
    </rdf:RDF>
  </metadata>
  <defs
     id="defs3875" />
  <sodipodi:namedview
     pagecolor="#ffffff"
     bordercolor="#666666"
     borderopacity="1"
     objecttolerance="10"
     gridtolerance="10"
     guidetolerance="10"
     inkscape:pageopacity="0"
     inkscape:pageshadow="2"
     inkscape:window-width="1920"
     inkscape:window-height="1026"
     id="namedview3873"
     showgrid="false"
     inkscape:zoom="34.916667"
     inkscape:cx="12"
     inkscape:cy="12"
     inkscape:window-x="0"
     inkscape:window-y="0"
     inkscape:window-maximized="1"
     inkscape:current-layer="svg3867" />
  <path
     d="M20.47 8c-.39-2.3-2.4-4-4.81-4H8.34C5.93 4 3.93 5.7 3.53 8 3.53 8 2 16.8 2 16.93 2 18.07 2.93 19 4.07 19c.57 0 1.09-.2 1.47-.58L9 15h6l3.46 3.42c.38.38.89.58 1.47.58 1.15 0 2.07-.93 2.07-2.07C22 16.8 20.47 8 20.47 8zM11 10H9v2H8v-2H6V9h2V7h1v2h2v1zm2.8.3c-.44 0-.8-.36-.8-.8 0-.44.36-.8.8-.8.44 0 .8.36.8.8 0 .44-.36.8-.8.8zm1.69 1.7c-.44 0-.8-.36-.8-.8 0-.44.36-.8.8-.8.44 0 .8.36.8.8 0 .44-.36.8-.8.8zm0-3.4c-.44 0-.8-.36-.8-.8s.36-.8.8-.8c.44 0 .8.36.8.8s-.36.8-.8.8zm1.71 1.7c-.44 0-.8-.36-.8-.8 0-.44.36-.8.8-.8s.8.36.8.8c0 .44-.36.8-.8.8z"
     id="path3869"
     style="fill:#ffffff" />
  <path
     fill="none"
     d="M0 0h24v24H0z"
     id="path3871" />
</svg>
